<svg width="33" height="32" viewBox="0 0 33 32" fill="none" xmlns="http://www.w3.org/2000/svg">
<path d="M16.6523 3C14.0812 3 11.5678 3.76244 9.42994 5.1909C7.2921 6.61935 5.62585 8.64968 4.64192 11.0251C3.65798 13.4006 3.40053 16.0144 3.90214 18.5362C4.40375 21.0579 5.64188 23.3743 7.45996 25.1924C9.27804 27.0105 11.5944 28.2486 14.1162 28.7502C16.6379 29.2518 19.2518 28.9944 21.6272 28.0104C24.0027 27.0265 26.033 25.3603 27.4615 23.2224C28.8899 21.0846 29.6523 18.5712 29.6523 16C29.6481 12.5535 28.277 9.2494 25.84 6.81236C23.4029 4.37532 20.0988 3.0043 16.6523 3ZM21.6523 17H17.6523V21C17.6523 21.2652 17.547 21.5196 17.3595 21.7071C17.1719 21.8946 16.9176 22 16.6523 22C16.3871 22 16.1328 21.8946 15.9452 21.7071C15.7577 21.5196 15.6523 21.2652 15.6523 21V17H11.6523C11.3871 17 11.1328 16.8946 10.9452 16.7071C10.7577 16.5196 10.6523 16.2652 10.6523 16C10.6523 15.7348 10.7577 15.4804 10.9452 15.2929C11.1328 15.1054 11.3871 15 11.6523 15H15.6523V11C15.6523 10.7348 15.7577 10.4804 15.9452 10.2929C16.1328 10.1054 16.3871 10 16.6523 10C16.9176 10 17.1719 10.1054 17.3595 10.2929C17.547 10.4804 17.6523 10.7348 17.6523 11V15H21.6523C21.9176 15 22.1719 15.1054 22.3595 15.2929C22.547 15.4804 22.6523 15.7348 22.6523 16C22.6523 16.2652 22.547 16.5196 22.3595 16.7071C22.1719 16.8946 21.9176 17 21.6523 17Z" fill="url(#paint0_linear_288_24486)"/>
<defs>
<linearGradient id="paint0_linear_288_24486" x1="16.6523" y1="3" x2="16.6523" y2="29" gradientUnits="userSpaceOnUse">
<stop stop-color="#0062E0"/>
<stop offset="1" stop-color="#00A6FF"/>
</linearGradient>
</defs>
</svg>
