<svg width="25" height="24" viewBox="0 0 25 24" fill="none" xmlns="http://www.w3.org/2000/svg">
<path d="M13.277 4.88879L17.687 9.28679M4.29004 21.2498H20.71M4.64404 16.7348L5.13704 13.3098C5.16356 13.086 5.26716 12.8785 5.43004 12.7228L15.095 3.05879C15.2193 2.93211 15.3741 2.83967 15.5446 2.79044C15.7151 2.74121 15.8954 2.73685 16.068 2.77779C16.9597 3.01451 17.7705 3.48868 18.414 4.14979C19.0795 4.79185 19.5579 5.60278 19.798 6.49579C19.8351 6.66865 19.8287 6.84798 19.7795 7.01778C19.7303 7.18757 19.6398 7.34252 19.516 7.46879L9.85204 17.1328C9.68542 17.2867 9.47766 17.3888 9.25404 17.4268L5.81704 17.9188C5.65694 17.9404 5.49401 17.9246 5.34106 17.8726C5.18812 17.8205 5.04934 17.7337 4.93564 17.6189C4.82194 17.5042 4.73642 17.3646 4.68582 17.2112C4.63523 17.0578 4.62092 16.8947 4.64404 16.7348Z" stroke="white" stroke-width="1.5" stroke-linecap="round" stroke-linejoin="round"/>
</svg>
