<svg width="42" height="42" viewBox="0 0 42 42" fill="none" xmlns="http://www.w3.org/2000/svg">
<g clip-path="url(#clip0_288_29947)">
<rect width="42" height="42" rx="21" fill="url(#paint0_linear_288_29947)"/>
<rect width="42" height="42" rx="21" fill="black" fill-opacity="0.2"/>
<path d="M17.0302 22.7198C17.171 22.8605 17.25 23.0514 17.25 23.2504C17.25 23.4494 17.171 23.6403 17.0302 23.781C16.8895 23.9218 16.6986 24.0008 16.4996 24.0008C16.3006 24.0008 16.1097 23.9218 15.969 23.781L11.469 19.281C11.3993 19.2114 11.3439 19.1287 11.3062 19.0376C11.2685 18.9466 11.249 18.849 11.249 18.7504C11.249 18.6519 11.2685 18.5543 11.3062 18.4632C11.3439 18.3722 11.3993 18.2894 11.469 18.2198L15.969 13.7198C16.1097 13.5791 16.3006 13.5 16.4996 13.5C16.6986 13.5 16.8895 13.5791 17.0302 13.7198C17.171 13.8605 17.25 14.0514 17.25 14.2504C17.25 14.4494 17.171 14.6403 17.0302 14.781L13.0599 18.7504L17.0302 22.7198ZM20.9996 18.0004H18.3099L21.5302 14.781C21.671 14.6403 21.75 14.4494 21.75 14.2504C21.75 14.0514 21.671 13.8605 21.5302 13.7198C21.3895 13.5791 21.1986 13.5 20.9996 13.5C20.8006 13.5 20.6097 13.5791 20.469 13.7198L15.969 18.2198C15.8993 18.2894 15.8439 18.3722 15.8062 18.4632C15.7685 18.5543 15.749 18.6519 15.749 18.7504C15.749 18.849 15.7685 18.9466 15.8062 19.0376C15.8439 19.1287 15.8993 19.2114 15.969 19.281L20.469 23.781C20.5387 23.8507 20.6214 23.906 20.7124 23.9437C20.8035 23.9814 20.9011 24.0008 20.9996 24.0008C21.0982 24.0008 21.1957 23.9814 21.2868 23.9437C21.3778 23.906 21.4606 23.8507 21.5302 23.781C21.5999 23.7114 21.6552 23.6286 21.6929 23.5376C21.7306 23.4465 21.75 23.349 21.75 23.2504C21.75 23.1519 21.7306 23.0543 21.6929 22.9632C21.6552 22.8722 21.5999 22.7895 21.5302 22.7198L18.3099 19.5004H20.9996C23.1869 19.5029 25.2839 20.3729 26.8305 21.9195C28.3771 23.4662 29.2471 25.5631 29.2496 27.7504C29.2496 27.9493 29.3286 28.1401 29.4693 28.2807C29.6099 28.4214 29.8007 28.5004 29.9996 28.5004C30.1985 28.5004 30.3893 28.4214 30.5299 28.2807C30.6706 28.1401 30.7496 27.9493 30.7496 27.7504C30.7469 25.1654 29.7188 22.687 27.8909 20.8591C26.063 19.0313 23.5846 18.0031 20.9996 18.0004Z" fill="white"/>
</g>
<defs>
<linearGradient id="paint0_linear_288_29947" x1="21" y1="0" x2="21" y2="42" gradientUnits="userSpaceOnUse">
<stop stop-color="#2BFFFF" stop-opacity="0.32"/>
<stop offset="0.5" stop-color="#2BFFFF" stop-opacity="0.1"/>
<stop offset="1" stop-color="#2BFFFF"/>
</linearGradient>
<clipPath id="clip0_288_29947">
<rect width="42" height="42" fill="white"/>
</clipPath>
</defs>
</svg>
