<svg width="42" height="42" viewBox="0 0 42 42" fill="none" xmlns="http://www.w3.org/2000/svg">
<rect width="42" height="42" rx="21" fill="url(#paint0_linear_288_29944)"/>
<rect width="42" height="42" rx="21" fill="black" fill-opacity="0.2"/>
<path d="M30.5306 19.281L26.0306 23.781C25.8899 23.9218 25.699 24.0008 25.5 24.0008C25.301 24.0008 25.1101 23.9218 24.9694 23.781C24.8286 23.6403 24.7496 23.4494 24.7496 23.2504C24.7496 23.0514 24.8286 22.8605 24.9694 22.7198L28.9397 18.7504L24.9694 14.781C24.8997 14.7114 24.8444 14.6286 24.8067 14.5376C24.769 14.4465 24.7496 14.349 24.7496 14.2504C24.7496 14.1519 24.769 14.0543 24.8067 13.9632C24.8444 13.8722 24.8997 13.7895 24.9694 13.7198C25.1101 13.5791 25.301 13.5 25.5 13.5C25.5985 13.5 25.6961 13.5194 25.7872 13.5571C25.8782 13.5948 25.9609 13.6501 26.0306 13.7198L30.5306 18.2198C30.6004 18.2894 30.6557 18.3722 30.6934 18.4632C30.7312 18.5543 30.7506 18.6519 30.7506 18.7504C30.7506 18.849 30.7312 18.9466 30.6934 19.0376C30.6557 19.1287 30.6004 19.2114 30.5306 19.281ZM26.0306 18.2198L21.5306 13.7198C21.3899 13.5791 21.199 13.5 21 13.5C20.801 13.5 20.6101 13.5791 20.4694 13.7198C20.3286 13.8605 20.2496 14.0514 20.2496 14.2504C20.2496 14.4494 20.3286 14.6403 20.4694 14.781L23.6897 18.0004H21C18.415 18.0031 15.9366 19.0313 14.1087 20.8591C12.2808 22.687 11.2527 25.1654 11.25 27.7504C11.25 27.9493 11.329 28.1401 11.4697 28.2807C11.6103 28.4214 11.8011 28.5004 12 28.5004C12.1989 28.5004 12.3897 28.4214 12.5303 28.2807C12.671 28.1401 12.75 27.9493 12.75 27.7504C12.7525 25.5631 13.6225 23.4662 15.1691 21.9195C16.7157 20.3729 18.8127 19.5029 21 19.5004H23.6897L20.4694 22.7198C20.3997 22.7895 20.3444 22.8722 20.3067 22.9632C20.269 23.0543 20.2496 23.1519 20.2496 23.2504C20.2496 23.349 20.269 23.4465 20.3067 23.5376C20.3444 23.6286 20.3997 23.7114 20.4694 23.781C20.6101 23.9218 20.801 24.0008 21 24.0008C21.0985 24.0008 21.1961 23.9814 21.2872 23.9437C21.3782 23.906 21.4609 23.8507 21.5306 23.781L26.0306 19.281C26.1004 19.2114 26.1557 19.1287 26.1934 19.0376C26.2312 18.9466 26.2506 18.849 26.2506 18.7504C26.2506 18.6519 26.2312 18.5543 26.1934 18.4632C26.1557 18.3722 26.1004 18.2894 26.0306 18.2198Z" fill="white"/>
<defs>
<linearGradient id="paint0_linear_288_29944" x1="21" y1="0" x2="21" y2="42" gradientUnits="userSpaceOnUse">
<stop stop-color="#2BFFFF" stop-opacity="0.32"/>
<stop offset="0.5" stop-color="#2BFFFF" stop-opacity="0.1"/>
<stop offset="1" stop-color="#2BFFFF"/>
</linearGradient>
</defs>
</svg>
