<svg width="25" height="24" viewBox="0 0 25 24" fill="none" xmlns="http://www.w3.org/2000/svg">
<path d="M20.75 4.5H4.25C4.05109 4.5 3.86032 4.57902 3.71967 4.71967C3.57902 4.86032 3.5 5.05109 3.5 5.25C3.5 5.44891 3.57902 5.63968 3.71967 5.78033C3.86032 5.92098 4.05109 6 4.25 6H5V19.5C5 19.8978 5.15804 20.2794 5.43934 20.5607C5.72064 20.842 6.10218 21 6.5 21H18.5C18.8978 21 19.2794 20.842 19.5607 20.5607C19.842 20.2794 20 19.8978 20 19.5V6H20.75C20.9489 6 21.1397 5.92098 21.2803 5.78033C21.421 5.63968 21.5 5.44891 21.5 5.25C21.5 5.05109 21.421 4.86032 21.2803 4.71967C21.1397 4.57902 20.9489 4.5 20.75 4.5ZM18.5 19.5H6.5V6H18.5V19.5ZM8 2.25C8 2.05109 8.07902 1.86032 8.21967 1.71967C8.36032 1.57902 8.55109 1.5 8.75 1.5H16.25C16.4489 1.5 16.6397 1.57902 16.7803 1.71967C16.921 1.86032 17 2.05109 17 2.25C17 2.44891 16.921 2.63968 16.7803 2.78033C16.6397 2.92098 16.4489 3 16.25 3H8.75C8.55109 3 8.36032 2.92098 8.21967 2.78033C8.07902 2.63968 8 2.44891 8 2.25Z" fill="#F11331"/>
</svg>
