<svg width="40" height="40" viewBox="0 0 40 40" fill="none" xmlns="http://www.w3.org/2000/svg">
<rect width="40" height="40" rx="20" fill="url(#paint0_linear_383_2863)"/>
<rect width="40" height="40" rx="20" fill="black" fill-opacity="0.2"/>
<path d="M28.4616 12.3086H11.5385C11.1305 12.3086 10.7392 12.4707 10.4506 12.7592C10.1621 13.0477 10 13.439 10 13.8471V29.2317C9.99825 29.525 10.0812 29.8127 10.239 30.06C10.3968 30.3074 10.6227 30.5039 10.8895 30.6259C11.0927 30.7206 11.3142 30.7698 11.5385 30.7701C11.8996 30.7693 12.2488 30.6405 12.5241 30.4067L12.5327 30.3999L15.6731 27.6932H28.4616C28.8696 27.6932 29.2609 27.5311 29.5494 27.2426C29.8379 26.9541 30 26.5628 30 26.1547V13.8471C30 13.439 29.8379 13.0477 29.5494 12.7592C29.2609 12.4707 28.8696 12.3086 28.4616 12.3086ZM28.4616 26.1547H15.3846C15.1999 26.1548 15.0214 26.2214 14.8818 26.3422L11.5385 29.2317V13.8471H28.4616V26.1547Z" fill="white"/>
<defs>
<linearGradient id="paint0_linear_383_2863" x1="20" y1="0" x2="20" y2="40" gradientUnits="userSpaceOnUse">
<stop stop-color="#2BFFFF" stop-opacity="0.32"/>
<stop offset="0.5" stop-color="#2BFFFF" stop-opacity="0.1"/>
<stop offset="1" stop-color="#2BFFFF"/>
</linearGradient>
</defs>
</svg>
