<svg width="12" height="12" viewBox="0 0 12 12" fill="none" xmlns="http://www.w3.org/2000/svg">
<path d="M11.2505 4.07447L8.02825 3.79664L6.76998 0.853025C6.54363 0.317221 5.77136 0.317221 5.545 0.853025L4.28673 3.80326L1.07116 4.07447C0.485298 4.12077 0.245628 4.8484 0.69168 5.23207L3.13498 7.3356L2.40266 10.4578C2.26951 11.0267 2.88866 11.4765 3.39463 11.1722L6.15749 9.5185L8.92036 11.1788C9.42633 11.4831 10.0455 11.0333 9.91232 10.4644L9.18 7.3356L11.6233 5.23207C12.0694 4.8484 11.8363 4.12077 11.2505 4.07447ZM6.15749 8.28152L3.65427 9.7831L4.32002 6.95193L2.10973 5.04685L5.02572 4.79549L6.15749 2.12969L7.29593 4.8021L10.2119 5.05347L8.00162 6.95855L8.66737 9.78971L6.15749 8.28152Z" fill="url(#paint0_linear_383_4585)"/>
<defs>
<linearGradient id="paint0_linear_383_4585" x1="6.15847" y1="0.451172" x2="6.15847" y2="11.2769" gradientUnits="userSpaceOnUse">
<stop stop-color="#0062E0"/>
<stop offset="1" stop-color="#00A6FF"/>
</linearGradient>
</defs>
</svg>
