<svg width="17" height="12" viewBox="0 0 17 12" fill="none" xmlns="http://www.w3.org/2000/svg">
<path d="M15.8844 1.33334L5.64481 11.5729C5.58537 11.6324 5.51479 11.6796 5.4371 11.7118C5.35941 11.744 5.27613 11.7606 5.19203 11.7606C5.10792 11.7606 5.02465 11.744 4.94696 11.7118C4.86927 11.6796 4.79868 11.6324 4.73925 11.5729L0.259447 7.09308C0.139362 6.973 0.0718994 6.81013 0.0718994 6.6403C0.0718994 6.47048 0.139362 6.30761 0.259447 6.18752C0.379532 6.06744 0.542401 5.99998 0.712227 5.99998C0.882052 5.99998 1.04492 6.06744 1.16501 6.18752L5.19203 10.2153L14.9788 0.427782C15.0989 0.307697 15.2617 0.240234 15.4316 0.240234C15.6014 0.240234 15.7643 0.307697 15.8844 0.427782C16.0044 0.547866 16.0719 0.710736 16.0719 0.880562C16.0719 1.05039 16.0044 1.21326 15.8844 1.33334Z" fill="url(#paint0_linear_288_29314)"/>
<defs>
<linearGradient id="paint0_linear_288_29314" x1="8.0719" y1="0.240234" x2="8.0719" y2="11.7606" gradientUnits="userSpaceOnUse">
<stop stop-color="#6BADFC"/>
<stop offset="1" stop-color="#041F44"/>
</linearGradient>
</defs>
</svg>
