<svg width="17" height="16" viewBox="0 0 17 16" fill="none" xmlns="http://www.w3.org/2000/svg">
<path d="M12.7384 2.66667H0.738444C0.561633 2.66667 0.392064 2.7369 0.26704 2.86193C0.142015 2.98695 0.0717773 3.15652 0.0717773 3.33333V15.3333C0.0717773 15.5101 0.142015 15.6797 0.26704 15.8047C0.392064 15.9298 0.561633 16 0.738444 16H12.7384C12.9153 16 13.0848 15.9298 13.2098 15.8047C13.3349 15.6797 13.4051 15.5101 13.4051 15.3333V3.33333C13.4051 3.15652 13.3349 2.98695 13.2098 2.86193C13.0848 2.7369 12.9153 2.66667 12.7384 2.66667ZM12.0718 14.6667H1.40511V4H12.0718V14.6667ZM16.0718 0.666667V12.6667C16.0718 12.8435 16.0015 13.013 15.8765 13.1381C15.7515 13.2631 15.5819 13.3333 15.4051 13.3333C15.2283 13.3333 15.0587 13.2631 14.9337 13.1381C14.8087 13.013 14.7384 12.8435 14.7384 12.6667V1.33333H3.40511C3.2283 1.33333 3.05873 1.2631 2.93371 1.13807C2.80868 1.01305 2.73844 0.843478 2.73844 0.666667C2.73844 0.489856 2.80868 0.320287 2.93371 0.195262C3.05873 0.070238 3.2283 0 3.40511 0H15.4051C15.5819 0 15.7515 0.070238 15.8765 0.195262C16.0015 0.320287 16.0718 0.489856 16.0718 0.666667Z" fill="url(#paint0_linear_288_29440)"/>
<defs>
<linearGradient id="paint0_linear_288_29440" x1="8.07178" y1="0" x2="8.07178" y2="16" gradientUnits="userSpaceOnUse">
<stop stop-color="#6BADFC"/>
<stop offset="1" stop-color="#041F44"/>
</linearGradient>
</defs>
</svg>
