<svg width="50" height="50" viewBox="0 0 50 50" fill="none" xmlns="http://www.w3.org/2000/svg">
<g filter="url(#filter0_d_288_29057)">
<rect x="4" width="42" height="42" rx="21" fill="#EEEEEE"/>
<path d="M25 3.9375C21.6254 3.9375 18.3265 4.9382 15.5206 6.81305C12.7147 8.6879 10.5277 11.3527 9.23631 14.4705C7.94489 17.5882 7.607 21.0189 8.26536 24.3287C8.92372 27.6385 10.5488 30.6788 12.935 33.065C15.3212 35.4512 18.3615 37.0763 21.6713 37.7346C24.9811 38.393 28.4118 38.0551 31.5295 36.7637C34.6473 35.4723 37.3121 33.2853 39.187 30.4794C41.0618 27.6735 42.0625 24.3746 42.0625 21C42.0577 16.4762 40.2585 12.1391 37.0597 8.94027C33.8609 5.74146 29.5238 3.94228 25 3.9375ZM25 35.4375C22.1445 35.4375 19.3532 34.5908 16.979 33.0043C14.6047 31.4179 12.7542 29.1631 11.6615 26.525C10.5688 23.8869 10.2828 20.984 10.8399 18.1834C11.397 15.3828 12.772 12.8103 14.7912 10.7911C16.8103 8.77203 19.3828 7.39699 22.1834 6.83991C24.984 6.28284 27.8869 6.56875 30.525 7.66149C33.1631 8.75423 35.4179 10.6047 37.0044 12.979C38.5908 15.3532 39.4375 18.1445 39.4375 21C39.4332 24.8277 37.9107 28.4974 35.2041 31.2041C32.4974 33.9107 28.8277 35.4332 25 35.4375ZM32.875 21C32.875 21.3481 32.7367 21.6819 32.4906 21.9281C32.2444 22.1742 31.9106 22.3125 31.5625 22.3125H21.6056L24.6161 25.3214C24.738 25.4433 24.8348 25.5881 24.9008 25.7474C24.9668 25.9068 25.0007 26.0775 25.0007 26.25C25.0007 26.4225 24.9668 26.5932 24.9008 26.7526C24.8348 26.9119 24.738 27.0567 24.6161 27.1786C24.4942 27.3005 24.3494 27.3973 24.1901 27.4633C24.0307 27.5293 23.86 27.5632 23.6875 27.5632C23.5151 27.5632 23.3443 27.5293 23.185 27.4633C23.0256 27.3973 22.8809 27.3005 22.7589 27.1786L17.5089 21.9286C17.3869 21.8067 17.2901 21.6619 17.224 21.5026C17.158 21.3433 17.124 21.1725 17.124 21C17.124 20.8275 17.158 20.6567 17.224 20.4974C17.2901 20.3381 17.3869 20.1933 17.5089 20.0714L22.7589 14.8214C23.0052 14.5751 23.3392 14.4368 23.6875 14.4368C24.0358 14.4368 24.3698 14.5751 24.6161 14.8214C24.8624 15.0677 25.0007 15.4017 25.0007 15.75C25.0007 16.0983 24.8624 16.4323 24.6161 16.6786L21.6056 19.6875H31.5625C31.9106 19.6875 32.2444 19.8258 32.4906 20.0719C32.7367 20.3181 32.875 20.6519 32.875 21Z" fill="url(#paint0_linear_288_29057)"/>
</g>
<defs>
<filter id="filter0_d_288_29057" x="0" y="0" width="50" height="50" filterUnits="userSpaceOnUse" color-interpolation-filters="sRGB">
<feFlood flood-opacity="0" result="BackgroundImageFix"/>
<feColorMatrix in="SourceAlpha" type="matrix" values="0 0 0 0 0 0 0 0 0 0 0 0 0 0 0 0 0 0 127 0" result="hardAlpha"/>
<feOffset dy="4"/>
<feGaussianBlur stdDeviation="2"/>
<feComposite in2="hardAlpha" operator="out"/>
<feColorMatrix type="matrix" values="0 0 0 0 0 0 0 0 0 0 0 0 0 0 0 0 0 0 0.25 0"/>
<feBlend mode="normal" in2="BackgroundImageFix" result="effect1_dropShadow_288_29057"/>
<feBlend mode="normal" in="SourceGraphic" in2="effect1_dropShadow_288_29057" result="shape"/>
</filter>
<linearGradient id="paint0_linear_288_29057" x1="25" y1="3.9375" x2="25" y2="38.0625" gradientUnits="userSpaceOnUse">
<stop stop-color="#6BADFC"/>
<stop offset="1" stop-color="#041F44"/>
</linearGradient>
</defs>
</svg>
