<svg width="25" height="25" viewBox="0 0 25 25" fill="none" xmlns="http://www.w3.org/2000/svg">
<g clip-path="url(#clip0_763_379)">
<path d="M13.7883 8.65215L5.38826 16.9022C5.24798 17.0401 5.05909 17.1175 4.86232 17.1175C4.66555 17.1175 4.47666 17.0401 4.33638 16.9022L0.736382 13.3668C0.666145 13.2978 0.6102 13.2156 0.57174 13.1249C0.533281 13.0342 0.51306 12.9368 0.512233 12.8383C0.511406 12.7398 0.529989 12.6421 0.56692 12.5508C0.603852 12.4595 0.658408 12.3763 0.727475 12.3061C0.796542 12.2358 0.878767 12.1799 0.969455 12.1414C1.06014 12.103 1.15752 12.0827 1.25602 12.0819C1.35452 12.0811 1.45223 12.0997 1.54355 12.1366C1.63487 12.1735 1.71802 12.2281 1.78826 12.2972L4.86232 15.3159L12.7373 7.58153C12.8793 7.44204 13.0709 7.36467 13.2699 7.36643C13.3684 7.3673 13.4658 7.38757 13.5566 7.42608C13.6473 7.4646 13.7295 7.52061 13.7986 7.5909C13.8676 7.6612 13.9222 7.74442 13.9591 7.83579C13.996 7.92717 14.0145 8.02493 14.0137 8.12347C14.0128 8.22202 13.9925 8.31943 13.954 8.41014C13.9155 8.50085 13.8595 8.58309 13.7892 8.65215H13.7883ZM22.7976 7.5909C22.7286 7.52055 22.6464 7.4645 22.5557 7.42595C22.4649 7.3874 22.3675 7.36711 22.2689 7.36624C22.1704 7.36537 22.0726 7.38394 21.9812 7.42088C21.8899 7.45782 21.8066 7.51241 21.7364 7.58153L13.8614 15.3159L12.0961 13.5815C11.9541 13.4422 11.7626 13.3649 11.5636 13.3668C11.3647 13.3686 11.1747 13.4494 11.0353 13.5914C10.8959 13.7333 10.8187 13.9249 10.8205 14.1238C10.8224 14.3227 10.9032 14.5128 11.0451 14.6522L13.3354 16.9022C13.4757 17.0401 13.6646 17.1175 13.8614 17.1175C14.0581 17.1175 14.247 17.0401 14.3873 16.9022L22.7873 8.65215C22.8577 8.58318 22.9139 8.501 22.9525 8.41032C22.9911 8.31964 23.0115 8.22223 23.0125 8.12367C23.0134 8.0251 22.9949 7.92732 22.9581 7.8359C22.9212 7.74449 22.8667 7.66123 22.7976 7.5909Z" fill="#0DC98D"/>
</g>
<defs>
<clipPath id="clip0_763_379">
<rect width="24" height="24" fill="white" transform="translate(0.0786133 0.572266)"/>
</clipPath>
</defs>
</svg>
