<svg width="52" height="52" viewBox="0 0 52 52" fill="none" xmlns="http://www.w3.org/2000/svg">
<path d="M26 4.875C21.8219 4.875 17.7376 6.11396 14.2636 8.4352C10.7896 10.7564 8.08196 14.0557 6.48305 17.9158C4.88415 21.7759 4.46581 26.0234 5.28092 30.1213C6.09603 34.2191 8.10799 37.9832 11.0624 40.9376C14.0168 43.892 17.7809 45.904 21.8787 46.7191C25.9766 47.5342 30.2241 47.1159 34.0842 45.517C37.9443 43.918 41.2436 41.2104 43.5648 37.7364C45.886 34.2624 47.125 30.1781 47.125 26C47.1191 20.3991 44.8915 15.0293 40.9311 11.0689C36.9707 7.10848 31.6009 4.88091 26 4.875ZM32.0247 27.1497L23.8997 35.2747C23.7487 35.4257 23.5695 35.5454 23.3722 35.6271C23.175 35.7088 22.9635 35.7509 22.75 35.7509C22.5365 35.7509 22.3251 35.7088 22.1278 35.6271C21.9305 35.5454 21.7513 35.4257 21.6003 35.2747C21.4493 35.1237 21.3296 34.9445 21.2479 34.7472C21.1662 34.5499 21.1241 34.3385 21.1241 34.125C21.1241 33.9115 21.1662 33.7001 21.2479 33.5028C21.3296 33.3055 21.4493 33.1263 21.6003 32.9753L28.5777 26L21.6003 19.0247C21.2954 18.7198 21.1241 18.3062 21.1241 17.875C21.1241 17.4438 21.2954 17.0302 21.6003 16.7253C21.9052 16.4204 22.3188 16.2491 22.75 16.2491C23.1812 16.2491 23.5948 16.4204 23.8997 16.7253L32.0247 24.8503C32.1758 25.0012 32.2956 25.1804 32.3774 25.3777C32.4592 25.575 32.5013 25.7864 32.5013 26C32.5013 26.2135 32.4592 26.425 32.3774 26.6223C32.2956 26.8195 32.1758 26.9988 32.0247 27.1497Z" fill="url(#paint0_linear_288_26621)"/>
<defs>
<linearGradient id="paint0_linear_288_26621" x1="26" y1="4.875" x2="26" y2="47.125" gradientUnits="userSpaceOnUse">
<stop stop-color="#6BADFC"/>
<stop offset="1" stop-color="#041F44"/>
</linearGradient>
</defs>
</svg>
