<svg width="52" height="52" viewBox="0 0 52 52" fill="none" xmlns="http://www.w3.org/2000/svg">
<path d="M26 47.125C30.1781 47.125 34.2624 45.886 37.7364 43.5648C41.2104 41.2436 43.918 37.9443 45.5169 34.0842C47.1158 30.2241 47.5342 25.9766 46.7191 21.8787C45.904 17.7809 43.892 14.0168 40.9376 11.0624C37.9832 8.10799 34.2191 6.09603 30.1213 5.28092C26.0234 4.4658 21.7759 4.88415 17.9158 6.48305C14.0557 8.08195 10.7564 10.7896 8.4352 14.2636C6.11395 17.7376 4.87499 21.8219 4.87499 26C4.88091 31.6009 7.10847 36.9707 11.0689 40.9311C15.0293 44.8915 20.3991 47.1191 26 47.125ZM19.9753 24.8503L28.1003 16.7253C28.2513 16.5743 28.4305 16.4546 28.6278 16.3729C28.825 16.2912 29.0365 16.2491 29.25 16.2491C29.4635 16.2491 29.6749 16.2912 29.8722 16.3729C30.0695 16.4546 30.2487 16.5743 30.3997 16.7253C30.5507 16.8763 30.6704 17.0555 30.7521 17.2528C30.8338 17.4501 30.8759 17.6615 30.8759 17.875C30.8759 18.0885 30.8338 18.2999 30.7521 18.4972C30.6704 18.6945 30.5507 18.8737 30.3997 19.0247L23.4223 26L30.3997 32.9753C30.7046 33.2802 30.8759 33.6938 30.8759 34.125C30.8759 34.5562 30.7046 34.9698 30.3997 35.2747C30.0948 35.5796 29.6812 35.7509 29.25 35.7509C28.8188 35.7509 28.4052 35.5796 28.1003 35.2747L19.9753 27.1497C19.8242 26.9988 19.7044 26.8196 19.6226 26.6223C19.5408 26.425 19.4987 26.2136 19.4987 26C19.4987 25.7865 19.5408 25.575 19.6226 25.3777C19.7044 25.1805 19.8242 25.0012 19.9753 24.8503Z" fill="url(#paint0_linear_288_26619)"/>
<defs>
<linearGradient id="paint0_linear_288_26619" x1="26" y1="47.125" x2="26" y2="4.87499" gradientUnits="userSpaceOnUse">
<stop stop-color="#6BADFC"/>
<stop offset="1" stop-color="#041F44"/>
</linearGradient>
</defs>
</svg>
