<svg width="60" height="60" viewBox="0 0 60 60" fill="none" xmlns="http://www.w3.org/2000/svg">
<rect x="0.5" y="0.5" width="59" height="59" rx="29.5" stroke="url(#paint0_linear_383_3095)"/>
<path d="M38.25 24.1875H23.25C23.0014 24.1875 22.7629 24.0887 22.5871 23.9129C22.4113 23.7371 22.3125 23.4986 22.3125 23.25C22.3125 23.0014 22.4113 22.7629 22.5871 22.5871C22.7629 22.4113 23.0014 22.3125 23.25 22.3125H36C36.1492 22.3125 36.2923 22.2532 36.3977 22.1477C36.5032 22.0423 36.5625 21.8992 36.5625 21.75C36.5625 21.6008 36.5032 21.4577 36.3977 21.3523C36.2923 21.2468 36.1492 21.1875 36 21.1875H23.25C22.703 21.1875 22.1784 21.4048 21.7916 21.7916C21.4048 22.1784 21.1875 22.703 21.1875 23.25V35.25C21.1875 35.797 21.4048 36.3216 21.7916 36.7084C22.1784 37.0952 22.703 37.3125 23.25 37.3125H38.25C38.5981 37.3125 38.9319 37.1742 39.1781 36.9281C39.4242 36.6819 39.5625 36.3481 39.5625 36V25.5C39.5625 25.1519 39.4242 24.8181 39.1781 24.5719C38.9319 24.3258 38.5981 24.1875 38.25 24.1875ZM38.4375 36C38.4375 36.0497 38.4177 36.0974 38.3826 36.1326C38.3474 36.1677 38.2997 36.1875 38.25 36.1875H23.25C23.0014 36.1875 22.7629 36.0887 22.5871 35.9129C22.4113 35.7371 22.3125 35.4986 22.3125 35.25V25.0866C22.6026 25.2354 22.924 25.3129 23.25 25.3125H38.25C38.2997 25.3125 38.3474 25.3323 38.3826 25.3674C38.4177 25.4026 38.4375 25.4503 38.4375 25.5V36ZM35.8125 30.375C35.8125 30.5604 35.7575 30.7417 35.6545 30.8958C35.5515 31.05 35.4051 31.1702 35.2338 31.2411C35.0625 31.3121 34.874 31.3307 34.6921 31.2945C34.5102 31.2583 34.3432 31.169 34.2121 31.0379C34.081 30.9068 33.9917 30.7398 33.9555 30.5579C33.9193 30.376 33.9379 30.1875 34.0089 30.0162C34.0798 29.8449 34.2 29.6985 34.3542 29.5955C34.5083 29.4925 34.6896 29.4375 34.875 29.4375C35.1236 29.4375 35.3621 29.5363 35.5379 29.7121C35.7137 29.8879 35.8125 30.1264 35.8125 30.375Z" fill="url(#paint1_linear_383_3095)"/>
<defs>
<linearGradient id="paint0_linear_383_3095" x1="30" y1="0" x2="30" y2="60" gradientUnits="userSpaceOnUse">
<stop stop-color="#0062E0"/>
<stop offset="1" stop-color="#00A6FF"/>
</linearGradient>
<linearGradient id="paint1_linear_383_3095" x1="21.1875" y1="29.25" x2="39.5625" y2="29.25" gradientUnits="userSpaceOnUse">
<stop stop-color="#4B93F8"/>
<stop offset="1" stop-color="#0151C1"/>
</linearGradient>
</defs>
</svg>
