<svg width="49" height="46" viewBox="0 0 49 46" fill="none" xmlns="http://www.w3.org/2000/svg">
<rect x="0.5" y="0.5" width="48" height="45" rx="22.5" fill="url(#paint0_linear_319_2430)"/>
<rect x="0.5" y="0.5" width="48" height="45" rx="22.5" stroke="white" stroke-opacity="0.12"/>
<rect x="0.5" y="0.5" width="48" height="45" rx="22.5" stroke="url(#paint1_linear_319_2430)"/>
<path d="M33.4999 15V28C33.4999 28.2652 33.3946 28.5196 33.2071 28.7071C33.0195 28.8946 32.7652 29 32.4999 29C32.2347 29 31.9804 28.8946 31.7928 28.7071C31.6053 28.5196 31.4999 28.2652 31.4999 28V17.4137L17.2074 31.7075C17.0198 31.8951 16.7653 32.0006 16.4999 32.0006C16.2346 32.0006 15.9801 31.8951 15.7924 31.7075C15.6048 31.5199 15.4994 31.2654 15.4994 31C15.4994 30.7346 15.6048 30.4801 15.7924 30.2925L30.0862 16H19.4999C19.2347 16 18.9804 15.8946 18.7928 15.7071C18.6053 15.5196 18.4999 15.2652 18.4999 15C18.4999 14.7348 18.6053 14.4804 18.7928 14.2929C18.9804 14.1054 19.2347 14 19.4999 14H32.4999C32.7652 14 33.0195 14.1054 33.2071 14.2929C33.3946 14.4804 33.4999 14.7348 33.4999 15Z" fill="white"/>
<defs>
<linearGradient id="paint0_linear_319_2430" x1="24.5" y1="0" x2="24.5" y2="46" gradientUnits="userSpaceOnUse">
<stop stop-color="#6BADFC"/>
<stop offset="1" stop-color="#041F44"/>
</linearGradient>
<linearGradient id="paint1_linear_319_2430" x1="33.2203" y1="7.98626e-06" x2="6.31369" y2="16.7018" gradientUnits="userSpaceOnUse">
<stop stop-color="#74B4FF"/>
<stop offset="1" stop-color="#326FB6" stop-opacity="0"/>
</linearGradient>
</defs>
</svg>
