<svg width="60" height="60" viewBox="0 0 60 60" fill="none" xmlns="http://www.w3.org/2000/svg">
<rect x="0.5" y="0.5" width="59" height="59" rx="29.5" stroke="url(#paint0_linear_383_3087)"/>
<path d="M36.4481 23.3522C35.3512 21.4688 33.8606 20.4375 32.25 20.4375H27.75C26.1394 20.4375 24.6488 21.4688 23.5519 23.3522C22.5113 25.1372 21.9375 27.4978 21.9375 30C21.9375 32.5022 22.5113 34.8628 23.5519 36.6478C24.6488 38.5312 26.1394 39.5625 27.75 39.5625H32.25C33.8606 39.5625 35.3512 38.5312 36.4481 36.6478C37.4887 34.8666 38.0625 32.5022 38.0625 30C38.0625 27.4978 37.4887 25.1372 36.4481 23.3522ZM36.9263 29.4375H33.5513C33.4903 27.6712 33.1416 25.9941 32.5444 24.5625H35.8125C36.4744 25.9444 36.8588 27.6347 36.9263 29.4375ZM32.25 21.5625C33.3103 21.5625 34.3331 22.2244 35.1694 23.4375H31.995L31.9481 23.3522C31.569 22.6829 31.085 22.0787 30.5147 21.5625H32.25ZM24.5231 36.0806C23.5819 34.4653 23.0625 32.3062 23.0625 30C23.0625 27.6937 23.5819 25.5347 24.5231 23.9194C25.4063 22.3997 26.5556 21.5625 27.75 21.5625C28.9444 21.5625 30.0938 22.3997 30.9769 23.9194C31.9181 25.5347 32.4375 27.6937 32.4375 30C32.4375 32.3062 31.9181 34.4653 30.9769 36.0806C30.0938 37.6003 28.9444 38.4375 27.75 38.4375C26.5556 38.4375 25.4063 37.6003 24.5231 36.0806ZM32.25 38.4375H30.5147C31.085 37.9213 31.569 37.3171 31.9481 36.6478L31.995 36.5625H35.1694C34.3331 37.7756 33.3103 38.4375 32.25 38.4375ZM35.8125 35.4375H32.5444C33.1416 34.0059 33.4903 32.3287 33.5513 30.5625H36.9263C36.8588 32.3653 36.4744 34.0556 35.8125 35.4375Z" fill="url(#paint1_linear_383_3087)"/>
<defs>
<linearGradient id="paint0_linear_383_3087" x1="30" y1="0" x2="30" y2="60" gradientUnits="userSpaceOnUse">
<stop stop-color="#0062E0"/>
<stop offset="1" stop-color="#00A6FF"/>
</linearGradient>
<linearGradient id="paint1_linear_383_3087" x1="21.9375" y1="30" x2="38.0625" y2="30" gradientUnits="userSpaceOnUse">
<stop stop-color="#4B93F8"/>
<stop offset="1" stop-color="#0151C1"/>
</linearGradient>
</defs>
</svg>
