<svg width="60" height="60" viewBox="0 0 60 60" fill="none" xmlns="http://www.w3.org/2000/svg">
<rect x="0.5" y="0.5" width="59" height="59" rx="29.5" stroke="url(#paint0_linear_383_3106)"/>
<path d="M42.75 40C42.75 40.1989 42.671 40.3897 42.5303 40.5303C42.3897 40.671 42.1989 40.75 42 40.75H18C17.8011 40.75 17.6103 40.671 17.4697 40.5303C17.329 40.3897 17.25 40.1989 17.25 40V20C17.25 19.8011 17.329 19.6103 17.4697 19.4697C17.6103 19.329 17.8011 19.25 18 19.25C18.1989 19.25 18.3897 19.329 18.5303 19.4697C18.671 19.6103 18.75 19.8011 18.75 20V32.3475L25.5063 26.435C25.6357 26.3219 25.8001 26.2567 25.9719 26.2503C26.1437 26.2439 26.3125 26.2968 26.45 26.4L33.9638 32.035L41.5063 25.435C41.6572 25.3187 41.8469 25.2642 42.0366 25.2827C42.2263 25.3012 42.4018 25.3912 42.5276 25.5344C42.6533 25.6776 42.7198 25.8634 42.7135 26.0539C42.7072 26.2444 42.6287 26.4254 42.4937 26.56L34.4937 33.56C34.3643 33.6731 34.1999 33.7383 34.0281 33.7447C33.8563 33.7511 33.6875 33.6982 33.55 33.595L26.0363 27.965L18.75 34.34V39.25H42C42.1989 39.25 42.3897 39.329 42.5303 39.4697C42.671 39.6103 42.75 39.8011 42.75 40Z" fill="url(#paint1_linear_383_3106)"/>
<defs>
<linearGradient id="paint0_linear_383_3106" x1="30" y1="0" x2="30" y2="60" gradientUnits="userSpaceOnUse">
<stop stop-color="#0062E0"/>
<stop offset="1" stop-color="#00A6FF"/>
</linearGradient>
<linearGradient id="paint1_linear_383_3106" x1="17.25" y1="30" x2="42.75" y2="30" gradientUnits="userSpaceOnUse">
<stop stop-color="#4B93F8"/>
<stop offset="1" stop-color="#0151C1"/>
</linearGradient>
</defs>
</svg>
