<svg width="20" height="20" viewBox="0 0 20 20" fill="none" xmlns="http://www.w3.org/2000/svg">
<path d="M10 0C8.07164 0 6.18657 0.571828 4.58319 1.64317C2.97982 2.71451 1.73013 4.23726 0.992179 6.01884C0.254225 7.80042 0.061142 9.76082 0.437348 11.6521C0.813554 13.5434 1.74215 15.2807 3.10571 16.6443C4.46928 18.0079 6.20656 18.9365 8.09787 19.3127C9.98919 19.6889 11.9496 19.4958 13.7312 18.7578C15.5127 18.0199 17.0355 16.7702 18.1068 15.1668C19.1782 13.5634 19.75 11.6784 19.75 9.75C19.7473 7.16498 18.7192 4.68661 16.8913 2.85872C15.0634 1.03084 12.585 0.00272983 10 0ZM10 18C8.36831 18 6.77326 17.5161 5.41655 16.6096C4.05984 15.7031 3.00242 14.4146 2.378 12.9071C1.75358 11.3996 1.5902 9.74085 1.90853 8.1405C2.22685 6.54016 3.01259 5.07015 4.16637 3.91637C5.32016 2.76259 6.79017 1.97685 8.39051 1.65852C9.99085 1.34019 11.6497 1.50357 13.1571 2.12799C14.6646 2.75242 15.9531 3.80984 16.8596 5.16655C17.7661 6.52325 18.25 8.1183 18.25 9.75C18.2475 11.9373 17.3775 14.0343 15.8309 15.5809C14.2843 17.1275 12.1873 17.9975 10 18ZM11.5 14.25C11.5 14.4489 11.421 14.6397 11.2803 14.7803C11.1397 14.921 10.9489 15 10.75 15C10.3522 15 9.97065 14.842 9.68934 14.5607C9.40804 14.2794 9.25 13.8978 9.25 13.5V9.75C9.05109 9.75 8.86033 9.67098 8.71967 9.53033C8.57902 9.38968 8.5 9.19891 8.5 9C8.5 8.80109 8.57902 8.61032 8.71967 8.46967C8.86033 8.32902 9.05109 8.25 9.25 8.25C9.64783 8.25 10.0294 8.40804 10.3107 8.68934C10.592 8.97064 10.75 9.35218 10.75 9.75V13.5C10.9489 13.5 11.1397 13.579 11.2803 13.7197C11.421 13.8603 11.5 14.0511 11.5 14.25ZM8.5 5.625C8.5 5.4025 8.56598 5.18499 8.6896 4.99998C8.81322 4.81498 8.98892 4.67078 9.19449 4.58564C9.40005 4.50049 9.62625 4.47821 9.84448 4.52162C10.0627 4.56502 10.2632 4.67217 10.4205 4.8295C10.5778 4.98684 10.685 5.18729 10.7284 5.40552C10.7718 5.62375 10.7495 5.84995 10.6644 6.05552C10.5792 6.26109 10.435 6.43679 10.25 6.5604C10.065 6.68402 9.84751 6.75 9.625 6.75C9.32664 6.75 9.04049 6.63147 8.82951 6.4205C8.61853 6.20952 8.5 5.92337 8.5 5.625Z" fill="url(#paint0_linear_288_25326)"/>
<defs>
<linearGradient id="paint0_linear_288_25326" x1="10" y1="0" x2="10" y2="19.5" gradientUnits="userSpaceOnUse">
<stop stop-color="#6BADFC"/>
<stop offset="1" stop-color="#041F44"/>
</linearGradient>
</defs>
</svg>
