<svg width="157" height="124" viewBox="0 0 157 124" fill="none" xmlns="http://www.w3.org/2000/svg">
<g filter="url(#filter0_d_696_2443)">
<path d="M105.424 41.3461C124.604 52.4188 122.827 75.7342 104.187 85.1775C85.0064 96.2502 53.9092 96.2502 34.729 85.1775C15.1443 74.4793 14.2877 52.6699 33.4679 41.5972C52.6481 30.5244 86.2434 30.2734 105.424 41.3461Z" fill="#1864F8"/>
</g>
<circle cx="40.1005" cy="40.1005" r="39.8495" transform="matrix(0.866044 -0.499967 0.866044 0.499967 0 60.4414)" fill="url(#paint0_linear_696_2443)" stroke="url(#paint1_linear_696_2443)" stroke-width="0.502017"/>
<g filter="url(#filter1_d_696_2443)">
<path d="M58.7268 65.1756C28.6305 51.3391 38.8254 31.529 47.6849 23.3535C56.4142 24.0375 78.3479 25.6401 96.2494 26.5781C118.626 27.7507 119.603 63.0259 109.441 67.0322C99.2785 71.0385 100.94 72.2111 58.7268 65.1756Z" fill="#337EFF"/>
</g>
<path d="M87.0713 13.0186C100.243 12.9559 113.4 15.658 122.951 21.1719C132.484 26.675 136.791 35.2065 136.418 43.5205C136.056 51.5776 131.298 59.4591 122.579 64.21L121.724 64.6592L121.714 64.6641C112.161 70.1792 99.6271 72.9424 87.083 72.9424C74.5389 72.9424 62.0055 70.1792 52.4521 64.6641L52.4473 64.6621C42.7032 59.3393 37.6439 51.2689 37.3818 43.1777C37.1199 35.0886 41.6513 26.9299 51.1904 21.4229C60.7426 15.9084 73.9002 13.0813 87.0713 13.0186Z" fill="white" fill-opacity="0.5" stroke="url(#paint2_linear_696_2443)" stroke-width="0.390861"/>
<circle cx="40.1005" cy="40.1005" r="39.8495" transform="matrix(0.866044 -0.499967 0.866044 0.499967 17.625 40.0977)" fill="white" fill-opacity="0.5" stroke="url(#paint3_linear_696_2443)" stroke-width="0.502017"/>
<g clip-path="url(#clip0_696_2443)">
<path d="M102.184 34.3901L74.8117 29.2198C74.136 29.0958 73.4227 29.0749 72.7423 29.1592C72.0619 29.2435 71.4381 29.43 70.9328 29.7003C70.4274 29.9705 70.058 30.3151 69.8612 30.7C69.6644 31.0848 69.647 31.4965 69.8108 31.8942L76.6999 48.019C76.8596 48.403 77.1915 48.7594 77.6617 49.0516C78.1318 49.3438 78.7233 49.5614 79.3755 49.682C80.0504 49.8093 80.7651 49.8317 81.4461 49.7469C82.1272 49.6621 82.7501 49.4732 83.251 49.1994L103.735 38.2449C104.245 37.9774 104.618 37.6336 104.815 37.2487C105.012 36.8638 105.027 36.4516 104.858 36.0543C104.699 35.6702 104.367 35.3137 103.897 35.0213C103.428 34.7288 102.837 34.511 102.184 34.3901ZM102.332 36.3602C102.39 36.4991 102.383 36.643 102.312 36.7771C102.241 36.9111 102.109 37.0306 101.93 37.1232L81.4462 48.0777C81.2726 48.1739 81.0561 48.2407 80.8189 48.2713C80.5817 48.3019 80.3324 48.2951 80.0964 48.2517C79.8836 48.213 79.6906 48.1424 79.5375 48.0472C79.3843 47.952 79.2766 47.8357 79.2256 47.7105L72.3365 31.5857C72.2816 31.4462 72.2895 31.3023 72.3596 31.1679C72.4296 31.0334 72.5594 30.9131 72.7362 30.8185C72.9131 30.7239 73.131 30.6583 73.3688 30.6281C73.6066 30.598 73.8561 30.6042 74.0932 30.6462L101.466 35.8165C101.678 35.8558 101.871 35.927 102.023 36.0226C102.176 36.1183 102.282 36.2349 102.332 36.3602ZM83.5319 38.6145L79.0199 35.8101C78.7806 35.6614 78.6497 35.4659 78.6562 35.2668C78.6627 35.0676 78.8059 34.8811 79.0544 34.7482C79.3029 34.6153 79.6363 34.5469 79.9812 34.5581C80.3262 34.5694 80.6544 34.6592 80.8938 34.808L85.4058 37.6124C85.6451 37.7611 85.7759 37.9566 85.7694 38.1557C85.763 38.3549 85.6197 38.5414 85.3712 38.6743C85.1227 38.8072 84.7894 38.8755 84.4444 38.8643C84.0995 38.8531 83.7712 38.7632 83.5319 38.6145ZM89.935 39.8858C90.2027 40.0522 90.382 40.2589 90.4502 40.4798C90.5184 40.7008 90.4724 40.926 90.318 41.127C90.1637 41.328 89.9079 41.4958 89.583 41.6091C89.2582 41.7225 88.8789 41.7763 88.493 41.7637C88.1071 41.7512 87.7321 41.6728 87.4153 41.5386C87.0985 41.4044 86.8542 41.2204 86.7132 41.0098C86.5722 40.7992 86.541 40.5714 86.6234 40.3554C86.7057 40.1393 86.8981 39.9447 87.176 39.796C87.5488 39.5967 88.0488 39.4942 88.5663 39.511C89.0837 39.5278 89.576 39.6626 89.935 39.8858Z" fill="url(#paint4_linear_696_2443)"/>
</g>
<defs>
<filter id="filter0_d_696_2443" x="6.16367" y="33.166" width="126.233" height="90.4369" filterUnits="userSpaceOnUse" color-interpolation-filters="sRGB">
<feFlood flood-opacity="0" result="BackgroundImageFix"/>
<feColorMatrix in="SourceAlpha" type="matrix" values="0 0 0 0 0 0 0 0 0 0 0 0 0 0 0 0 0 0 127 0" result="hardAlpha"/>
<feOffset dy="16.7339"/>
<feGaussianBlur stdDeviation="6.69356"/>
<feComposite in2="hardAlpha" operator="out"/>
<feColorMatrix type="matrix" values="0 0 0 0 0.343982 0 0 0 0 0.567028 0 0 0 0 1 0 0 0 0.5 0"/>
<feBlend mode="normal" in2="BackgroundImageFix" result="effect1_dropShadow_696_2443"/>
<feBlend mode="normal" in="SourceGraphic" in2="effect1_dropShadow_696_2443" result="shape"/>
</filter>
<filter id="filter1_d_696_2443" x="22.1796" y="17.4906" width="109.877" height="79.7273" filterUnits="userSpaceOnUse" color-interpolation-filters="sRGB">
<feFlood flood-opacity="0" result="BackgroundImageFix"/>
<feColorMatrix in="SourceAlpha" type="matrix" values="0 0 0 0 0 0 0 0 0 0 0 0 0 0 0 0 0 0 127 0" result="hardAlpha"/>
<feOffset dy="10.5532"/>
<feGaussianBlur stdDeviation="8.20807"/>
<feComposite in2="hardAlpha" operator="out"/>
<feColorMatrix type="matrix" values="0 0 0 0 0.188235 0 0 0 0 0.220706 0 0 0 0 1 0 0 0 0.7 0"/>
<feBlend mode="normal" in2="BackgroundImageFix" result="effect1_dropShadow_696_2443"/>
<feBlend mode="normal" in="SourceGraphic" in2="effect1_dropShadow_696_2443" result="shape"/>
</filter>
<linearGradient id="paint0_linear_696_2443" x1="40.1005" y1="0" x2="40.1005" y2="80.201" gradientUnits="userSpaceOnUse">
<stop stop-color="#0062E0"/>
<stop offset="1" stop-color="#00A6FF"/>
</linearGradient>
<linearGradient id="paint1_linear_696_2443" x1="6.94916" y1="32.6223" x2="42.159" y2="65.6454" gradientUnits="userSpaceOnUse">
<stop stop-color="white" stop-opacity="0.43"/>
<stop offset="0.846595" stop-color="white" stop-opacity="0.44"/>
<stop offset="1" stop-color="white" stop-opacity="0"/>
</linearGradient>
<linearGradient id="paint2_linear_696_2443" x1="45.7936" y1="37.3562" x2="69.9911" y2="74.7791" gradientUnits="userSpaceOnUse">
<stop stop-color="white" stop-opacity="0"/>
<stop offset="0.846595" stop-color="white" stop-opacity="0.06"/>
<stop offset="1" stop-color="white" stop-opacity="0.23"/>
</linearGradient>
<linearGradient id="paint3_linear_696_2443" x1="6.94916" y1="32.6223" x2="42.159" y2="65.6454" gradientUnits="userSpaceOnUse">
<stop stop-color="white" stop-opacity="0.43"/>
<stop offset="0.846595" stop-color="white" stop-opacity="0.44"/>
<stop offset="1" stop-color="white" stop-opacity="0"/>
</linearGradient>
<linearGradient id="paint4_linear_696_2443" x1="70.9322" y1="29.7006" x2="81.7806" y2="49.9859" gradientUnits="userSpaceOnUse">
<stop stop-color="#0062E0"/>
<stop offset="1" stop-color="#00A6FF"/>
</linearGradient>
<clipPath id="clip0_696_2443">
<rect width="34" height="34" fill="white" transform="matrix(0.881818 -0.47159 0.849318 0.527882 53.2363 36.0342)"/>
</clipPath>
</defs>
</svg>
