<svg width="25" height="23" viewBox="0 0 25 23" fill="none" xmlns="http://www.w3.org/2000/svg">
<path d="M21.2705 12.6173C21.2705 12.8338 21.1915 13.0414 21.0508 13.1944C20.9102 13.3475 20.7194 13.4335 20.5205 13.4335H10.7705C10.5716 13.4335 10.3808 13.3475 10.2402 13.1944C10.0995 13.0414 10.0205 12.8338 10.0205 12.6173C10.0205 12.4008 10.0995 12.1932 10.2402 12.0402C10.3808 11.8871 10.5716 11.8011 10.7705 11.8011H20.5205C20.7194 11.8011 20.9102 11.8871 21.0508 12.0402C21.1915 12.1932 21.2705 12.4008 21.2705 12.6173ZM10.7705 6.90406H20.5205C20.7194 6.90406 20.9102 6.81807 21.0508 6.66501C21.1915 6.51195 21.2705 6.30435 21.2705 6.08788C21.2705 5.87142 21.1915 5.66382 21.0508 5.51076C20.9102 5.3577 20.7194 5.27171 20.5205 5.27171H10.7705C10.5716 5.27171 10.3808 5.3577 10.2402 5.51076C10.0995 5.66382 10.0205 5.87142 10.0205 6.08788C10.0205 6.30435 10.0995 6.51195 10.2402 6.66501C10.3808 6.81807 10.5716 6.90406 10.7705 6.90406ZM20.5205 18.3305H4.02049C3.82157 18.3305 3.63081 18.4165 3.49016 18.5696C3.34951 18.7226 3.27049 18.9302 3.27049 19.1467C3.27049 19.3632 3.34951 19.5708 3.49016 19.7238C3.63081 19.8769 3.82157 19.9629 4.02049 19.9629H20.5205C20.7194 19.9629 20.9102 19.8769 21.0508 19.7238C21.1915 19.5708 21.2705 19.3632 21.2705 19.1467C21.2705 18.9302 21.1915 18.7226 21.0508 18.5696C20.9102 18.4165 20.7194 18.3305 20.5205 18.3305ZM3.48986 14.0109C3.55952 14.0868 3.64223 14.147 3.73328 14.1881C3.82433 14.2292 3.92193 14.2503 4.02049 14.2503C4.11905 14.2503 4.21664 14.2292 4.30769 14.1881C4.39874 14.147 4.48146 14.0868 4.55111 14.0109L8.30111 9.93004C8.37085 9.85424 8.42616 9.76422 8.46391 9.66514C8.50165 9.56606 8.52108 9.45985 8.52108 9.35259C8.52108 9.24533 8.50165 9.13913 8.46391 9.04004C8.42616 8.94096 8.37085 8.85095 8.30111 8.77515L4.55111 4.69426C4.41038 4.54112 4.21951 4.45508 4.02049 4.45508C3.82146 4.45508 3.63059 4.54112 3.48986 4.69426C3.34913 4.84741 3.27007 5.05512 3.27007 5.27171C3.27007 5.48829 3.34913 5.69601 3.48986 5.84915L6.71018 9.35259L3.48986 12.856C3.42013 12.9318 3.36481 13.0218 3.32707 13.1209C3.28932 13.22 3.2699 13.3262 3.2699 13.4335C3.2699 13.5407 3.28932 13.6469 3.32707 13.746C3.36481 13.8451 3.42013 13.9351 3.48986 14.0109Z" fill="white"/>
</svg>
