<svg width="27" height="28" viewBox="0 0 27 28" fill="none" xmlns="http://www.w3.org/2000/svg">
<path d="M24.5077 13.8462C24.5092 14.4503 24.3348 15.0419 24.0057 15.5486C23.6864 16.0603 23.2233 16.4665 22.6743 16.7163L7.23285 24.2024C6.80283 24.4183 6.32814 24.5305 5.84694 24.5298C5.64506 24.5301 5.44378 24.5082 5.24674 24.4643C4.5726 24.3377 3.95897 23.9925 3.50069 23.4821C3.03912 22.9723 2.75552 22.3264 2.69254 21.6416C2.62957 20.9567 2.79063 20.27 3.1515 19.6845L6.90547 14.4682C6.99219 14.2609 7.0367 14.0383 7.03641 13.8135C7.03682 13.5711 6.98079 13.332 6.87273 13.1151L3.40248 8.20435C3.04392 7.60798 2.89417 6.90916 2.97688 6.21823C3.05147 5.55478 3.33467 4.93212 3.78571 4.43989C4.23677 3.94766 4.83238 3.61127 5.48682 3.47915C6.14492 3.35011 6.82678 3.42629 7.44018 3.6974L22.718 10.9762C23.2548 11.2394 23.707 11.6479 24.0234 12.1552C24.3397 12.6625 24.5075 13.2483 24.5077 13.8462Z" fill="url(#paint0_linear_383_4649)"/>
<defs>
<linearGradient id="paint0_linear_383_4649" x1="13.5934" y1="3.41797" x2="13.5934" y2="24.5298" gradientUnits="userSpaceOnUse">
<stop stop-color="#0062E0"/>
<stop offset="1" stop-color="#00A6FF"/>
</linearGradient>
</defs>
</svg>
