<svg width="256" height="74" viewBox="0 0 256 74" fill="none" xmlns="http://www.w3.org/2000/svg">
<path d="M106.576 27.4303H97.3154C96.6819 27.4303 96.1429 27.8752 96.0437 28.4806L92.2984 51.4425C92.2328 51.8498 92.5207 52.2312 92.9419 52.2953C92.9814 52.3011 93.0216 52.3043 93.0625 52.3043H97.4835C98.1177 52.3043 98.6567 51.8582 98.7552 51.2528L99.7657 45.0594C99.8634 44.4546 100.403 44.0085 101.036 44.0078H103.968C110.068 44.0078 113.589 41.1536 114.508 35.497C114.923 33.0222 114.525 31.0777 113.327 29.716C112.011 28.2209 109.677 27.4297 106.577 27.4297L106.576 27.4303ZM107.644 35.8169C107.138 39.0298 104.599 39.0298 102.144 39.0298H100.746L101.726 33.0293C101.786 32.6667 102.109 32.3993 102.488 32.3993H103.129C104.801 32.3993 106.378 32.3993 107.193 33.3214C107.68 33.8711 107.828 34.6882 107.643 35.8169H107.644ZM134.258 35.7133H129.824C129.444 35.7133 129.121 35.9807 129.062 36.3433L128.865 37.5425L128.555 37.108C127.595 35.7605 125.454 35.3105 123.317 35.3105C118.417 35.3105 114.231 38.8996 113.416 43.934C112.992 46.445 113.595 48.8467 115.068 50.5211C116.419 52.0609 118.353 52.7026 120.653 52.7026C124.602 52.7026 126.791 50.2479 126.791 50.2479L126.594 51.4393C126.526 51.8466 126.814 52.2292 127.234 52.294C127.274 52.3005 127.314 52.303 127.355 52.303H131.349C131.983 52.303 132.522 51.8569 132.621 51.2515L135.017 36.5751C135.085 36.1697 134.799 35.7877 134.38 35.723C134.34 35.7165 134.299 35.7133 134.258 35.7133ZM128.077 44.059C127.649 46.5085 125.638 48.1532 123.073 48.1532C121.785 48.1532 120.756 47.7537 120.095 46.9967C119.439 46.245 119.19 45.1753 119.399 43.9839C119.799 41.5551 121.843 39.8567 124.369 39.8567C125.628 39.8567 126.652 40.2613 127.326 41.0248C128.002 41.7959 128.269 42.8721 128.076 44.0583L128.077 44.059ZM157.877 35.7133H153.42C152.994 35.7139 152.594 35.9185 152.355 36.2591L146.209 45.0134L143.603 36.601C143.439 36.0739 142.937 35.7133 142.368 35.7133H137.989C137.562 35.712 137.216 36.0454 137.215 36.4579C137.215 36.5408 137.229 36.6224 137.256 36.7007L142.165 50.6292L137.55 56.9282C137.303 57.2643 137.385 57.7305 137.732 57.9687C137.863 58.0587 138.02 58.1067 138.18 58.1067H142.631C143.053 58.1067 143.448 57.9079 143.688 57.5725L158.51 36.8846C158.753 36.5459 158.666 36.081 158.316 35.846C158.187 35.7592 158.033 35.7126 157.876 35.7126L157.877 35.7133Z" fill="#ABABAB"/>
<path d="M172.632 27.431H163.37C162.737 27.431 162.198 27.8765 162.1 28.4812L158.354 51.4432C158.288 51.8498 158.575 52.2312 158.994 52.2953C159.035 52.3011 159.075 52.3043 159.115 52.3043H163.868C164.311 52.3043 164.688 51.9916 164.757 51.5688L165.82 45.06C165.917 44.4553 166.456 44.0091 167.09 44.0085H170.02C176.122 44.0085 179.641 41.1543 180.562 35.4976C180.978 33.0229 180.578 31.0784 179.38 29.7167C178.065 28.2216 175.732 27.4303 172.633 27.4303L172.632 27.431ZM173.7 35.8175C173.195 39.0304 170.656 39.0304 168.199 39.0304H166.803L167.785 33.03C167.843 32.6674 168.166 32.4 168.546 32.4H169.186C170.857 32.4 172.436 32.4 173.251 33.322C173.737 33.8717 173.884 34.6889 173.699 35.8175H173.7ZM200.313 35.7139H195.881C195.501 35.7126 195.178 35.9807 195.12 36.3439L194.924 37.5431L194.613 37.1086C193.652 35.7612 191.513 35.3112 189.376 35.3112C184.475 35.3112 180.291 38.9003 179.476 43.9347C179.053 46.4457 179.653 48.8473 181.126 50.5218C182.48 52.0615 184.412 52.7032 186.712 52.7032C190.661 52.7032 192.85 50.2485 192.85 50.2485L192.652 51.4399C192.585 51.8472 192.872 52.2299 193.293 52.2946C193.334 52.3011 193.375 52.3043 193.416 52.3037H197.409C198.043 52.3037 198.581 51.8576 198.679 51.2521L201.077 36.5757C201.142 36.1678 200.853 35.7858 200.431 35.723C200.392 35.7171 200.352 35.7139 200.313 35.7145V35.7139ZM194.131 44.0596C193.706 46.5091 191.692 48.1538 189.127 48.1538C187.842 48.1538 186.81 47.7543 186.149 46.9974C185.494 46.2456 185.247 45.1759 185.454 43.9845C185.856 41.5557 187.898 39.8573 190.423 39.8573C191.683 39.8573 192.706 40.262 193.38 41.0254C194.059 41.7966 194.327 42.8727 194.13 44.059L194.131 44.0596ZM205.541 28.061L201.74 51.4432C201.673 51.8498 201.96 52.2312 202.38 52.2953C202.42 52.3011 202.46 52.3043 202.5 52.3043H206.321C206.956 52.3043 207.495 51.8589 207.593 51.2528L211.341 28.2922C211.407 27.8849 211.12 27.5029 210.699 27.4388C210.659 27.4329 210.62 27.4297 210.58 27.4297H206.301C205.921 27.431 205.599 27.6984 205.54 28.061H205.541Z" fill="#747474"/>
<path d="M53.8406 56.7671L54.5491 52.4171L52.9714 52.3815H45.4385L50.6731 20.2865C50.7053 20.0838 50.8861 19.9343 51.0984 19.9356H63.8003C68.0171 19.9356 70.9268 20.7838 72.4462 22.4589C73.1587 23.2443 73.6121 24.0654 73.8317 24.9686C74.0621 25.9166 74.0661 27.0491 73.8411 28.4309L73.825 28.5319V29.417L74.5375 29.8075C75.0813 30.0736 75.5701 30.4342 75.98 30.8707C76.5893 31.5421 76.9831 32.3962 77.1498 33.4082C77.3219 34.4494 77.265 35.6881 76.9831 37.09C76.6583 38.7029 76.1326 40.108 75.4235 41.2573C74.7974 42.2875 73.9556 43.1791 72.9525 43.8759C72.0103 44.5227 70.8899 45.0135 69.6243 45.3282C68.3975 45.6371 66.9986 45.7931 65.4644 45.7931H64.476C63.7689 45.7931 63.0825 46.0392 62.5434 46.4808C62.005 46.9269 61.6481 47.5427 61.5362 48.2193L61.4619 48.6111L60.211 56.2776L60.1541 56.5592C60.1393 56.6486 60.1132 56.6926 60.0757 56.7231C60.0389 56.7522 59.9934 56.7684 59.9458 56.769H53.8426L53.8406 56.7671Z" fill="#ABABAB"/>
<path d="M75.2111 28.6328C75.1729 28.8672 75.1301 29.1068 75.0812 29.3528C73.4064 37.6688 67.6755 40.5411 60.3562 40.5411H56.6296C55.7343 40.5411 54.9803 41.1699 54.841 42.0233L52.9331 53.7237L52.3927 57.0403C52.3104 57.5434 52.6653 58.0154 53.1856 58.0951C53.2345 58.1028 53.284 58.1061 53.3343 58.1061H59.9437C60.7265 58.1061 61.3915 57.5563 61.5147 56.8098L61.5797 56.4854L62.8239 48.8493L62.9036 48.4304C63.0255 47.6812 63.6918 47.1315 64.4746 47.1315H65.463C71.8669 47.1315 76.8799 44.6178 78.3451 37.3431C78.9571 34.3043 78.6404 31.7668 77.0205 29.9822C76.5069 29.4299 75.8942 28.9734 75.2111 28.6335V28.6328Z" fill="#747474"/>
<path d="M73.4588 27.9567C72.9238 27.8071 72.38 27.6905 71.8296 27.607C70.7427 27.4458 69.6438 27.3681 68.5443 27.3752H58.5886C57.8057 27.3752 57.1394 27.9262 57.0189 28.6741L54.9008 41.6443L54.8398 42.0225C54.9765 41.1691 55.7358 40.5397 56.6285 40.5403H60.3551C67.6744 40.5403 73.4046 37.666 75.0801 29.352C75.1303 29.106 75.1725 28.8664 75.21 28.632C74.768 28.408 74.3073 28.2202 73.8325 28.0706C73.708 28.0305 73.5834 27.9929 73.4575 27.9567H73.4588Z" fill="#ABABAB"/>
<path d="M57.0189 28.6741C57.1381 27.9256 57.8051 27.374 58.5886 27.3765H68.5443C69.7236 27.3765 70.8245 27.451 71.8296 27.6084C72.5093 27.712 73.1803 27.8661 73.8352 28.0707C74.3294 28.2293 74.7888 28.4164 75.2127 28.6321C75.7109 25.559 75.2087 23.4669 73.4904 21.5723C71.5946 19.4867 68.1753 18.5938 63.8005 18.5938H51.0985C50.2046 18.5938 49.4425 19.2225 49.3045 20.0772L44.0136 52.5031C43.9192 53.0787 44.3257 53.6194 44.921 53.7107C44.9773 53.7191 45.0335 53.7236 45.0904 53.7236H52.932L54.9008 41.645L57.0189 28.6748V28.6741Z" fill="#ABABAB"/>
</svg>
