<svg width="203" height="74" viewBox="0 0 203 74" fill="none" xmlns="http://www.w3.org/2000/svg">
<g clip-path="url(#clip0_288_26705)">
<path d="M185.961 26.041H194.212C199.194 26.041 202.893 29.9089 202.893 34.7084C202.893 39.5078 199.199 43.4112 194.182 43.4112H190.452V50.3775H185.966V26.041H185.961ZM190.447 30.2431V39.2091H193.881C196.553 39.2091 198.372 37.2094 198.372 34.7084C198.372 32.2074 196.558 30.2431 193.881 30.2431H190.447Z" fill="#747474"/>
<path d="M139.21 26.7227L139.516 44.589H139.396L134.213 26.7227H125.852V49.2517H131.39L131.08 30.7678H131.205L136.769 49.2517H144.794V26.7227H139.21Z" fill="#747474"/>
<path d="M33.1297 26.7227L28.9492 49.4846H35.0395L38.1222 28.8338L38.2476 28.8287L41.2551 49.4846H47.3053L43.1549 26.7227H33.1297Z" fill="#747474"/>
<path d="M67.1822 26.7227L64.4002 44.1283H64.2749L61.4979 26.7227H52.3048L51.8086 49.4846H57.4478L57.5881 29.0211H57.7134L61.4779 49.4846H67.1972L70.9617 29.0262L71.087 29.0211L71.2274 49.4846H76.8665L76.3703 26.7227H67.1822Z" fill="#747474"/>
<path d="M19.4663 43.0664C19.6868 43.6182 19.6167 44.322 19.5114 44.7523C19.3259 45.5117 18.8197 46.2863 17.3159 46.2863C15.9073 46.2863 15.0502 45.4611 15.0502 44.2207V42.0134H9V43.7701C9 48.848 12.9549 50.382 17.1906 50.382C21.4262 50.382 24.6192 48.9797 25.1556 45.1776C25.4313 43.2132 25.2257 41.9273 25.1305 41.4463C24.1781 36.6823 15.6266 35.2597 14.99 32.5917C14.8848 32.1309 14.9098 31.65 14.965 31.3969C15.1254 30.6678 15.6116 29.8679 17.0251 29.8679C18.3435 29.8679 19.1204 30.6881 19.1204 31.9284V33.3409H24.7445V31.7361C24.7445 26.7746 20.3335 26 17.1455 26C13.1404 26 9.86216 27.3416 9.26567 31.0526C9.10025 32.0651 9.0802 32.9764 9.31579 34.1206C10.2932 38.7732 18.3034 40.1199 19.4613 43.0613" fill="#747474"/>
<path d="M92.738 43.0185C92.9535 43.5652 92.8883 44.2588 92.7831 44.6841C92.6026 45.4334 92.0964 46.1979 90.6076 46.1979C89.2091 46.1979 88.362 45.3828 88.362 44.1525V41.9705H82.377V43.707C82.377 48.7343 86.2918 50.2531 90.4873 50.2531C94.6828 50.2531 97.8408 48.8659 98.3721 45.0993C98.6428 43.1552 98.4423 41.8794 98.3471 41.4035C97.4047 36.685 88.9384 35.2776 88.3119 32.6399C88.2016 32.1843 88.2317 31.7134 88.2818 31.4603C88.4422 30.7363 88.9284 29.9466 90.3219 29.9466C91.6352 29.9466 92.3971 30.7566 92.3971 31.9868V33.3791H97.9661V31.7944C97.9661 26.8836 93.6001 26.1191 90.4422 26.1191C86.4772 26.1191 83.2341 27.4456 82.6426 31.1211C82.4772 32.1286 82.4571 33.0247 82.6927 34.1587C83.6552 38.7658 91.5901 40.0973 92.738 43.0134" fill="#747474"/>
<path d="M111.655 46.0825C113.224 46.0825 113.705 44.994 113.815 44.432C113.866 44.189 113.871 43.8549 113.871 43.5612V26.7227H119.575V43.0448C119.58 43.4651 119.54 44.3207 119.52 44.5434C119.129 48.791 115.8 50.1681 111.66 50.1681C107.52 50.1681 104.191 48.791 103.795 44.5434C103.775 44.3207 103.73 43.4651 103.745 43.0448V26.7227H109.445V43.5612C109.44 43.8549 109.45 44.184 109.5 44.432C109.61 44.994 110.091 46.0825 111.66 46.0825" fill="#747474"/>
<path d="M158.656 45.8458C160.29 45.8458 160.856 44.8029 160.957 44.1953C161.002 43.9371 161.012 43.6182 161.012 43.3296V40.0237H158.701V36.7076H166.686V42.8082C166.686 43.2385 166.671 43.5473 166.606 44.3067C166.235 48.4531 162.676 49.9314 158.681 49.9314C154.686 49.9314 151.132 48.4531 150.756 44.3067C150.691 43.5524 150.681 43.2385 150.676 42.8082V33.2346C150.676 32.8295 150.726 32.1157 150.771 31.736C151.272 27.4833 154.686 26.1113 158.681 26.1113C162.676 26.1113 166.175 27.4681 166.591 31.736C166.661 32.46 166.641 33.2346 166.641 33.2346V33.994H160.957V32.7182C160.957 32.7182 160.957 32.1765 160.886 31.8524C160.786 31.3512 160.355 30.202 158.636 30.202C156.916 30.202 156.515 31.2905 156.39 31.8524C156.325 32.1511 156.3 32.5562 156.3 32.9308V43.3347C156.3 43.6233 156.31 43.9422 156.35 44.2004C156.455 44.8079 157.027 45.8508 158.656 45.8508" fill="#747474"/>
</g>
<defs>
<clipPath id="clip0_288_26705">
<rect width="237" height="33.3785" fill="white" transform="translate(9 26)"/>
</clipPath>
</defs>
</svg>
