<svg width="202" height="74" viewBox="0 0 202 74" fill="none" xmlns="http://www.w3.org/2000/svg">
<g clip-path="url(#clip0_288_26670)">
<path d="M91.4873 19C83.3804 19 76.1017 23.2183 76.1017 30.9592C76.1017 39.8743 88.9593 40.4831 88.9593 44.9189C88.9593 46.7889 86.7801 48.4849 83.1189 48.4849C77.8887 48.4849 73.966 46.1365 73.966 46.1365L72.3097 53.9644C72.3097 53.9644 76.799 55.9648 82.8138 55.9648C91.7052 55.9648 98.6788 51.5725 98.6788 43.6577C98.6788 34.2643 85.7776 33.6555 85.7776 29.5241C85.7776 28.0455 87.5646 26.4365 91.2258 26.4365C95.3664 26.4365 98.766 28.1325 98.766 28.1325L100.422 20.5656C100.379 20.5656 96.6739 19 91.4873 19ZM17.2179 19.5653L17 20.696C17 20.696 20.3997 21.3049 23.4942 22.566C27.4605 24.0011 27.722 24.8274 28.4193 27.3932L35.6981 55.356H45.4612L60.411 19.5653H50.6914L41.0591 43.9186L37.1364 23.2618C36.7877 20.9135 34.9571 19.5653 32.6907 19.5653H17.2179ZM64.3336 19.5653L56.7062 55.356H65.9899L73.5737 19.5653H64.3336ZM116.026 19.5653C113.803 19.5653 112.626 20.7395 111.754 22.8269L98.1558 55.356H107.875L109.75 49.92H121.605L122.738 55.356H131.324L123.871 19.5653H116.026ZM117.29 29.2632L120.166 42.701H112.452L117.29 29.2632Z" fill="#ABABAB"/>
</g>
<defs>
<clipPath id="clip0_288_26670">
<rect width="114.324" height="36.9648" fill="white" transform="translate(17 19)"/>
</clipPath>
</defs>
</svg>
