<svg width="256" height="74" viewBox="0 0 256 74" fill="none" xmlns="http://www.w3.org/2000/svg">
<path fill-rule="evenodd" clip-rule="evenodd" d="M90.0839 19.8093C88.6674 21.4971 86.4009 22.8283 84.1344 22.6381C83.8511 20.356 84.9607 17.9313 86.2592 16.4337C87.6758 14.6984 90.1547 13.4623 92.1615 13.3672C92.3976 15.7443 91.4768 18.074 90.0839 19.8093ZM92.1382 23.0905C90.1415 22.9748 88.3196 23.6951 86.848 24.2769C85.901 24.6514 85.099 24.9684 84.4889 24.9684C83.8042 24.9684 82.9692 24.6344 82.0316 24.2594C80.803 23.768 79.3985 23.2061 77.9256 23.2331C74.5495 23.2807 71.4095 25.2061 69.686 28.2727C66.1446 34.4057 68.7653 43.4864 72.1886 48.4785C73.8648 50.9507 75.8716 53.6607 78.5158 53.5656C79.6791 53.5214 80.5159 53.1638 81.3819 52.7938C82.3789 52.3679 83.4147 51.9253 85.0319 51.9253C86.5931 51.9253 87.5835 52.3563 88.5343 52.77C89.4383 53.1634 90.3064 53.5412 91.5952 53.518C94.3339 53.4705 96.0573 51.0458 97.7336 48.5736C99.5425 45.9202 100.337 43.3306 100.458 42.9376L100.462 42.9243C100.467 42.909 100.47 42.8982 100.472 42.8922C100.469 42.8892 100.447 42.8789 100.408 42.8608C99.8029 42.582 95.1809 40.4515 95.1366 34.7385C95.0921 29.9433 98.8026 27.5137 99.3867 27.1313L99.3867 27.1312L99.387 27.131L99.3872 27.1309C99.4225 27.1078 99.4463 27.0922 99.457 27.0841C97.0961 23.5659 93.4131 23.1856 92.1382 23.0905ZM111.097 53.2551V16.1953H124.908C132.038 16.1953 137.019 21.1398 137.019 28.3663C137.019 35.5929 131.943 40.5849 124.719 40.5849H116.81V53.2551H111.097ZM116.81 21.0449H123.396C128.354 21.0449 131.187 23.7073 131.187 28.3903C131.187 33.0733 128.354 35.7595 123.373 35.7595H116.81V21.0449ZM155.883 48.8105C154.372 51.7107 151.043 53.5411 147.454 53.5411C142.142 53.5411 138.436 50.3557 138.436 45.5539C138.436 40.7995 142.024 38.0658 148.658 37.6617L155.788 37.2338V35.1895C155.788 32.1705 153.829 30.5303 150.335 30.5303C147.454 30.5303 145.353 32.0279 144.928 34.3099H139.781C139.947 29.5081 144.432 26.0137 150.5 26.0137C157.04 26.0137 161.289 29.4605 161.289 34.8091V53.2558H156.001V48.8105H155.883ZM148.989 49.1442C145.944 49.1442 144.008 47.6703 144.008 45.412C144.008 43.0824 145.873 41.7274 149.438 41.5135L155.789 41.1094V43.2013C155.789 46.6719 152.861 49.1442 148.989 49.1442ZM178.831 54.7067C176.541 61.1964 173.92 63.3358 168.349 63.3358C167.924 63.3358 166.507 63.2883 166.177 63.1932V58.7479C166.531 58.7955 167.404 58.843 167.853 58.843C170.379 58.843 171.796 57.7733 172.669 54.992L173.189 53.3518L163.509 26.3711H169.482L176.21 48.2647H176.329L183.057 26.3711H188.865L178.831 54.7067Z" fill="#ABABAB"/>
</svg>
