<svg width="247" height="74" viewBox="0 0 247 74" fill="none" xmlns="http://www.w3.org/2000/svg">
<path d="M84.916 29.9471C78.6313 29.9471 73.7207 34.6601 73.7207 40.9695C73.7207 47.279 78.5072 51.9517 84.916 51.9517C91.3247 51.9517 96.1945 47.1983 96.1945 40.9292C96.1945 34.7005 91.4079 29.9471 84.916 29.9471ZM84.9584 47.4046C81.3795 47.4046 78.7569 44.6587 78.7569 40.9711C78.7569 37.2416 81.3371 34.4972 84.916 34.4972C88.5373 34.4972 91.1582 37.2835 91.1582 40.9711C91.1582 44.6587 88.5373 47.4046 84.9584 47.4046ZM97.567 34.7423H100.689V51.5437H105.683V30.3566H97.567V34.7423ZM61.1529 34.4957C63.7754 34.4957 65.8562 36.0936 66.6461 38.4703H71.932C70.9741 33.3895 66.7293 29.9471 61.1953 29.9471C54.9106 29.9471 50 34.6601 50 40.9711C50 47.2821 54.7865 51.9532 61.1953 51.9532C66.6053 51.9532 70.9332 48.5108 71.8912 43.3881H66.6461C65.897 45.7648 63.8163 47.4046 61.1937 47.4046C57.5724 47.4046 55.0347 44.6587 55.0347 40.9711C55.0362 37.2416 57.5331 34.4957 61.1529 34.4957ZM192.453 38.9217L188.791 38.3896C187.043 38.1445 185.794 37.5705 185.794 36.2177C185.794 34.7423 187.418 34.0054 189.623 34.0054C192.037 34.0054 193.577 35.0293 193.91 36.7095H198.738C198.196 32.4479 194.867 29.9486 189.749 29.9486C184.463 29.9486 180.967 32.6123 180.967 36.3821C180.967 39.9875 183.257 42.0788 187.875 42.7335L191.537 43.2656C193.328 43.5107 194.326 44.2088 194.326 45.5197C194.326 47.1998 192.578 47.8964 190.165 47.8964C187.209 47.8964 185.545 46.7081 185.295 44.9054H180.384C180.843 49.0444 184.13 51.9532 190.122 51.9532C195.575 51.9532 199.195 49.4943 199.195 45.273C199.195 41.5032 196.574 39.5361 192.453 38.9217ZM103.186 21.6286C101.355 21.6286 99.9807 22.9395 99.9807 24.7422C99.9807 26.5449 101.353 27.8558 103.186 27.8558C105.017 27.8558 106.391 26.5449 106.391 24.7422C106.391 22.9395 105.017 21.6286 103.186 21.6286ZM176.473 37.6108C176.473 33.0219 173.643 29.9486 167.65 29.9486C161.991 29.9486 158.828 32.7768 158.203 37.1206H163.156C163.405 35.4405 164.737 34.0473 167.567 34.0473C170.106 34.0473 171.355 35.1535 171.355 36.5063C171.355 38.2686 169.065 38.7185 166.235 39.0055C162.407 39.4151 157.663 40.726 157.663 45.6438C157.663 49.4555 160.535 51.9129 165.112 51.9129C168.691 51.9129 170.939 50.4376 172.063 48.1012C172.229 50.1909 173.811 51.5437 176.017 51.5437H178.93V47.1595H176.474V37.6108H176.473ZM171.562 42.9382C171.562 45.7664 169.065 47.8561 166.026 47.8561C164.153 47.8561 162.572 47.0773 162.572 45.439C162.572 43.3493 165.111 42.7753 167.441 42.5302C169.689 42.3254 170.937 41.8337 171.562 40.8904V42.9382ZM145.052 29.9471C142.263 29.9471 139.933 31.0951 138.268 33.0203V21.4238H133.274V51.5437H138.185V48.7574C139.85 50.7649 142.222 51.9532 145.052 51.9532C151.045 51.9532 155.582 47.2821 155.582 40.9711C155.582 34.6601 150.962 29.9471 145.052 29.9471ZM144.303 47.4046C140.724 47.4046 138.102 44.6587 138.102 40.9711C138.102 37.2835 140.765 34.4972 144.344 34.4972C147.965 34.4972 150.503 37.2432 150.503 40.9711C150.503 44.6587 147.882 47.4046 144.303 47.4046ZM121.33 29.9471C118.084 29.9471 115.961 31.258 114.712 33.1025V30.3566H109.759V51.5421H114.753V40.0279C114.753 36.7902 116.834 34.4957 119.914 34.4957C122.786 34.4957 124.574 36.5031 124.574 39.4135V51.5437H129.568V39.0458C129.57 33.7169 126.782 29.9471 121.33 29.9471ZM223 40.2745C223 34.2102 218.506 29.9486 212.471 29.9486C206.062 29.9486 201.359 34.702 201.359 40.9711C201.359 47.5691 206.395 51.9532 212.554 51.9532C217.756 51.9532 221.835 48.9203 222.874 44.6184H217.672C216.923 46.5033 215.092 47.5691 212.635 47.5691C209.43 47.5691 207.017 45.6019 206.476 42.1594H222.998V40.2745H223ZM206.768 38.6347C207.56 35.684 209.807 34.2506 212.387 34.2506C215.217 34.2506 217.381 35.8485 217.881 38.6347H206.768Z" fill="#747474"/>
</svg>
