<svg width="256" height="74" viewBox="0 0 256 74" fill="none" xmlns="http://www.w3.org/2000/svg">
<g clip-path="url(#clip0_288_26684)">
<path d="M139.64 20.1543H119.361V56.5483H139.64V20.1543Z" fill="#E8E8E8"/>
<path d="M120.649 38.3508C120.649 31.2777 123.932 24.5262 129.468 20.1537C119.425 12.2448 104.876 13.9809 96.9576 24.0761C89.0391 34.1069 90.7773 48.6388 100.885 56.5478C109.318 63.1707 121.099 63.1707 129.533 56.5478C123.932 52.1754 120.649 45.4238 120.649 38.3508Z" fill="#E8E8E8"/>
<path d="M167 38.3508C167 51.1465 156.635 61.4989 143.824 61.4989C138.609 61.4989 133.588 59.7628 129.532 56.5478C139.575 48.6388 141.313 34.1069 133.395 24.0118C132.236 22.5972 130.949 21.2469 129.532 20.1537C139.575 12.2448 154.189 13.9809 162.043 24.0761C165.262 28.127 167 33.1424 167 38.3508Z" fill="#ABABAB"/>
<path d="M164.812 52.6893V51.9177H165.134V51.7891H164.361V51.9177H164.683V52.6893H164.812ZM166.293 52.6893V51.7891H166.035L165.778 52.4321L165.52 51.7891H165.263V52.6893H165.456V51.982L165.713 52.5607H165.906L166.164 51.982V52.6893H166.293Z" fill="#ABABAB"/>
</g>
<defs>
<clipPath id="clip0_288_26684">
<rect width="75" height="46.2963" fill="white" transform="translate(92 15.2031)"/>
</clipPath>
</defs>
</svg>
