<svg width="42" height="42" viewBox="0 0 42 42" fill="none" xmlns="http://www.w3.org/2000/svg">
<rect width="41.7647" height="41.7647" rx="20.8824" fill="url(#paint0_linear_904_926)"/>
<rect width="41.7647" height="41.7647" rx="20.8824" fill="black" fill-opacity="0.2"/>
<path d="M32.9424 30.7258C31.1577 27.6403 28.4073 25.4278 25.1975 24.379C26.7852 23.4338 28.0188 21.9936 28.7087 20.2795C29.3987 18.5654 29.5069 16.6723 29.0167 14.8907C28.5266 13.1092 27.4652 11.5378 25.9955 10.4179C24.5259 9.29794 22.7292 8.69141 20.8815 8.69141C19.0338 8.69141 17.2371 9.29794 15.7675 10.4179C14.2978 11.5378 13.2364 13.1092 12.7463 14.8907C12.2561 16.6723 12.3644 18.5654 13.0543 20.2795C13.7443 21.9936 14.9778 23.4338 16.5655 24.379C13.3557 25.4266 10.6053 27.6391 8.82057 30.7258C8.75512 30.8326 8.71171 30.9513 8.6929 31.0751C8.67408 31.1989 8.68025 31.3251 8.71103 31.4465C8.74182 31.5678 8.79659 31.6818 8.87213 31.7816C8.94766 31.8815 9.04243 31.9652 9.15084 32.0278C9.25925 32.0904 9.3791 32.1307 9.50332 32.1462C9.62754 32.1618 9.75362 32.1523 9.87412 32.1183C9.99461 32.0843 10.1071 32.0266 10.2049 31.9484C10.3027 31.8703 10.3839 31.7734 10.4436 31.6633C12.6514 27.8477 16.5538 25.5696 20.8815 25.5696C25.2092 25.5696 29.1116 27.8477 31.3194 31.6633C31.3791 31.7734 31.4603 31.8703 31.5581 31.9484C31.6559 32.0266 31.7684 32.0843 31.8889 32.1183C32.0094 32.1523 32.1355 32.1618 32.2597 32.1462C32.3839 32.1307 32.5038 32.0904 32.6122 32.0278C32.7206 31.9652 32.8154 31.8815 32.8909 31.7816C32.9664 31.6818 33.0212 31.5678 33.052 31.4465C33.0828 31.3251 33.0889 31.1989 33.0701 31.0751C33.0513 30.9513 33.0079 30.8326 32.9424 30.7258ZM14.319 17.1321C14.319 15.8342 14.7039 14.5654 15.425 13.4862C16.1461 12.407 17.171 11.5658 18.3702 11.0691C19.5693 10.5724 20.8888 10.4425 22.1618 10.6957C23.4348 10.9489 24.6041 11.5739 25.5219 12.4917C26.4397 13.4095 27.0647 14.5788 27.3179 15.8518C27.5711 17.1248 27.4412 18.4443 26.9445 19.6435C26.4478 20.8426 25.6066 21.8675 24.5274 22.5886C23.4482 23.3097 22.1795 23.6946 20.8815 23.6946C19.1416 23.6927 17.4735 23.0007 16.2432 21.7704C15.0129 20.5401 14.3209 18.872 14.319 17.1321Z" fill="white"/>
<defs>
<linearGradient id="paint0_linear_904_926" x1="20.8824" y1="0" x2="20.8824" y2="41.7647" gradientUnits="userSpaceOnUse">
<stop stop-color="#2BFFFF" stop-opacity="0.32"/>
<stop offset="0.5" stop-color="#2BFFFF" stop-opacity="0.1"/>
<stop offset="1" stop-color="#2BFFFF"/>
</linearGradient>
</defs>
</svg>
