<svg width="9" height="8" viewBox="0 0 9 8" fill="none" xmlns="http://www.w3.org/2000/svg">
<path d="M6.08245 5.03172H5.74521L5.62569 4.91077C5.89246 4.58554 6.08744 4.20244 6.19666 3.78891C6.30588 3.37537 6.32664 2.94161 6.25747 2.51866C6.05683 1.27334 5.06648 0.278865 3.87122 0.126559C3.451 0.0707722 3.0242 0.116601 2.62346 0.260538C2.22272 0.404476 1.85867 0.642706 1.55917 0.957001C1.25967 1.27129 1.03265 1.65332 0.895483 2.07385C0.758319 2.49438 0.714647 2.94226 0.767808 3.38323C0.912947 4.63751 1.86062 5.67678 3.04734 5.88732C3.45038 5.95991 3.86373 5.93812 4.2578 5.82351C4.65188 5.7089 5.01694 5.50429 5.32687 5.22434L5.44213 5.34977V5.70366L7.25636 7.60749C7.43138 7.79115 7.71739 7.79115 7.89241 7.60749C8.06743 7.42382 8.06743 7.12369 7.89241 6.94003L6.08245 5.03172ZM3.52118 5.03172C2.45825 5.03172 1.60022 4.13132 1.60022 3.0159C1.60022 1.90048 2.45825 1.00008 3.52118 1.00008C4.5841 1.00008 5.44213 1.90048 5.44213 3.0159C5.44213 4.13132 4.5841 5.03172 3.52118 5.03172Z" fill="#3A3A3A"/>
</svg>
