<svg width="32" height="32" viewBox="0 0 32 32" fill="none" xmlns="http://www.w3.org/2000/svg">
<rect width="32" height="32" rx="16" fill="url(#paint0_linear_288_29244)"/>
<rect width="32" height="32" rx="16" fill="black" fill-opacity="0.2"/>
<path d="M22.1157 14.943L11.6678 8.55163C11.4917 8.44377 11.2899 8.38488 11.0834 8.38106C10.8769 8.37723 10.6731 8.42861 10.4931 8.52988C10.3148 8.62957 10.1663 8.77496 10.0628 8.95109C9.9593 9.12722 9.90459 9.32774 9.9043 9.53202V22.3134C9.90564 22.6198 10.0286 22.9132 10.2462 23.129C10.4637 23.3448 10.7581 23.4653 11.0645 23.4642C11.2784 23.4641 11.4881 23.4051 11.6707 23.2938L22.1157 16.9024C22.2836 16.8 22.4223 16.6562 22.5186 16.4848C22.6149 16.3134 22.6655 16.12 22.6655 15.9234C22.6655 15.7268 22.6149 15.5335 22.5186 15.362C22.4223 15.1906 22.2836 15.0468 22.1157 14.9445V14.943ZM11.0645 22.2996V9.54145L21.4942 15.9227L11.0645 22.2996Z" fill="white"/>
<defs>
<linearGradient id="paint0_linear_288_29244" x1="16" y1="0" x2="16" y2="32" gradientUnits="userSpaceOnUse">
<stop stop-color="#2BFFFF" stop-opacity="0.32"/>
<stop offset="0.5" stop-color="#2BFFFF" stop-opacity="0.1"/>
<stop offset="1" stop-color="#2BFFFF"/>
</linearGradient>
</defs>
</svg>
