<svg width="40" height="40" viewBox="0 0 40 40" fill="none" xmlns="http://www.w3.org/2000/svg">
<rect width="40" height="40" rx="20" fill="url(#paint0_linear_288_29274)"/>
<rect width="40" height="40" rx="20" fill="black" fill-opacity="0.2"/>
<path d="M34.7998 17.6448L31.8092 11.6612C31.699 11.441 31.5465 11.2446 31.3605 11.0833C31.1744 10.922 30.9584 10.7989 30.7247 10.7211C30.4911 10.6433 30.2444 10.6123 29.9988 10.6298C29.7532 10.6474 29.5134 10.7131 29.2932 10.8233L26.3787 12.28L20.2393 10.6557C20.0817 10.6148 19.9163 10.6148 19.7588 10.6557L13.6193 12.28L10.7049 10.8233C10.4847 10.7131 10.2449 10.6474 9.99928 10.6298C9.75365 10.6123 9.50697 10.6433 9.27333 10.7211C9.03969 10.7989 8.82367 10.922 8.6376 11.0833C8.45152 11.2446 8.29905 11.441 8.18888 11.6612L5.19825 17.6436C5.08804 17.8639 5.0223 18.1036 5.00476 18.3493C4.98722 18.5949 5.01825 18.8416 5.09605 19.0752C5.17386 19.3088 5.29693 19.5249 5.45823 19.7109C5.61953 19.897 5.81591 20.0495 6.03614 20.1597L9.2002 21.7429L15.7029 26.387C15.7988 26.4552 15.9065 26.5048 16.0205 26.5335L23.5205 28.4085C23.6776 28.4479 23.8422 28.4459 23.9983 28.4028C24.1543 28.3596 24.2966 28.2768 24.4111 28.1624L29.0986 23.4749L30.8658 21.7077L33.9619 20.1597C34.4064 19.9371 34.7443 19.5473 34.9015 19.0757C35.0586 18.6041 35.022 18.0894 34.7998 17.6448ZM28.3674 21.5554L24.335 18.3257C24.1543 18.181 23.9265 18.1083 23.6955 18.1215C23.4644 18.1347 23.2464 18.2329 23.0834 18.3972C20.9963 20.4995 18.6701 20.2335 17.1865 19.296L22.2537 14.3741H25.9815L29.1701 20.7503L28.3674 21.5554ZM23.4608 26.4608L16.6498 24.7581L10.8842 20.6401L14.1654 14.0776L19.999 12.5319L21.1475 12.8354L15.874 17.9542L15.8647 17.9647C15.6661 18.1632 15.5147 18.4038 15.4216 18.6686C15.3285 18.9335 15.2961 19.2158 15.3266 19.4949C15.3572 19.774 15.4501 20.0426 15.5984 20.281C15.7467 20.5193 15.9466 20.7214 16.1834 20.8722C18.5928 22.4108 21.5002 22.1612 23.79 20.2862L27.0303 22.8889L23.4608 26.4608ZM20.4467 30.5389C20.396 30.7416 20.2792 30.9215 20.1147 31.0501C19.9501 31.1788 19.7473 31.2488 19.5385 31.2491C19.4615 31.249 19.3847 31.2396 19.31 31.221L14.4221 29.9987C14.3079 29.9705 14.2001 29.9208 14.1045 29.8522L11.0166 27.6468C10.8267 27.4977 10.7017 27.2811 10.6675 27.0422C10.6333 26.8032 10.6926 26.5603 10.8331 26.3639C10.9735 26.1676 11.1843 26.033 11.4215 25.9882C11.6587 25.9434 11.9041 25.9918 12.1065 26.1233L15.049 28.2257L19.7647 29.4022C20.0058 29.4626 20.2131 29.6162 20.341 29.8294C20.4689 30.0425 20.5069 30.2978 20.4467 30.5389Z" fill="white"/>
<defs>
<linearGradient id="paint0_linear_288_29274" x1="20" y1="0" x2="20" y2="40" gradientUnits="userSpaceOnUse">
<stop stop-color="#2BFFFF" stop-opacity="0.32"/>
<stop offset="0.5" stop-color="#2BFFFF" stop-opacity="0.1"/>
<stop offset="1" stop-color="#2BFFFF"/>
</linearGradient>
</defs>
</svg>
