<svg width="32" height="32" viewBox="0 0 32 32" fill="none" xmlns="http://www.w3.org/2000/svg">
<rect width="32" height="32" rx="16" fill="url(#paint0_linear_288_29266)"/>
<rect width="32" height="32" rx="16" fill="black" fill-opacity="0.2"/>
<g clip-path="url(#clip0_288_29266)">
<path d="M16.7501 16.0703C16.7501 16.2928 16.6841 16.5103 16.5605 16.6953C16.4369 16.8803 16.2612 17.0245 16.0556 17.1097C15.8501 17.1948 15.6239 17.2171 15.4056 17.1737C15.1874 17.1303 14.987 17.0231 14.8296 16.8658C14.6723 16.7085 14.5651 16.508 14.5217 16.2898C14.4783 16.0716 14.5006 15.8454 14.5858 15.6398C14.6709 15.4342 14.8151 15.2585 15.0001 15.1349C15.1851 15.0113 15.4026 14.9453 15.6251 14.9453C15.9235 14.9453 16.2096 15.0638 16.4206 15.2748C16.6316 15.4858 16.7501 15.7719 16.7501 16.0703ZM15.6251 10.8203C15.8476 10.8203 16.0651 10.7543 16.2501 10.6307C16.4351 10.5071 16.5793 10.3314 16.6645 10.1258C16.7496 9.92027 16.7719 9.69407 16.7285 9.47584C16.6851 9.25761 16.578 9.05715 16.4206 8.89982C16.2633 8.74248 16.0628 8.63534 15.8446 8.59193C15.6264 8.54852 15.4002 8.5708 15.1946 8.65595C14.989 8.7411 14.8133 8.88529 14.6897 9.0703C14.5661 9.2553 14.5001 9.47281 14.5001 9.69531C14.5001 9.99368 14.6186 10.2798 14.8296 10.4908C15.0406 10.7018 15.3268 10.8203 15.6251 10.8203ZM15.6251 21.3203C15.4026 21.3203 15.1851 21.3863 15.0001 21.5099C14.8151 21.6335 14.6709 21.8092 14.5858 22.0148C14.5006 22.2204 14.4783 22.4466 14.5217 22.6648C14.5651 22.883 14.6723 23.0835 14.8296 23.2408C14.987 23.3981 15.1874 23.5053 15.4056 23.5487C15.6239 23.5921 15.8501 23.5698 16.0556 23.4847C16.2612 23.3995 16.4369 23.2553 16.5605 23.0703C16.6841 22.8853 16.7501 22.6678 16.7501 22.4453C16.7501 22.1469 16.6316 21.8608 16.4206 21.6498C16.2096 21.4388 15.9235 21.3203 15.6251 21.3203Z" fill="white"/>
</g>
<defs>
<linearGradient id="paint0_linear_288_29266" x1="16" y1="0" x2="16" y2="32" gradientUnits="userSpaceOnUse">
<stop stop-color="#2BFFFF" stop-opacity="0.32"/>
<stop offset="0.5" stop-color="#2BFFFF" stop-opacity="0.1"/>
<stop offset="1" stop-color="#2BFFFF"/>
</linearGradient>
<clipPath id="clip0_288_29266">
<rect width="24" height="24" fill="white" transform="translate(4 4)"/>
</clipPath>
</defs>
</svg>
