<svg width="32" height="32" viewBox="0 0 32 32" fill="none" xmlns="http://www.w3.org/2000/svg">
<rect width="32" height="32" rx="16" fill="url(#paint0_linear_288_29259)"/>
<rect width="32" height="32" rx="16" fill="black" fill-opacity="0.2"/>
<path d="M18.25 15.25H16.75V9.25H17.5C18.2956 9.25 19.0587 9.56607 19.6213 10.1287C20.1839 10.6913 20.5 11.4544 20.5 12.25C20.5 12.4489 20.579 12.6397 20.7197 12.7803C20.8603 12.921 21.0511 13 21.25 13C21.4489 13 21.6397 12.921 21.7803 12.7803C21.921 12.6397 22 12.4489 22 12.25C21.9988 11.0569 21.5243 9.91303 20.6806 9.06939C19.837 8.22575 18.6931 7.75124 17.5 7.75H16.75V6.25C16.75 6.05109 16.671 5.86032 16.5303 5.71967C16.3897 5.57902 16.1989 5.5 16 5.5C15.8011 5.5 15.6103 5.57902 15.4697 5.71967C15.329 5.86032 15.25 6.05109 15.25 6.25V7.75H14.5C13.3065 7.75 12.1619 8.22411 11.318 9.06802C10.4741 9.91193 10 11.0565 10 12.25C10 13.4435 10.4741 14.5881 11.318 15.432C12.1619 16.2759 13.3065 16.75 14.5 16.75H15.25V22.75H13.75C12.9544 22.75 12.1913 22.4339 11.6287 21.8713C11.0661 21.3087 10.75 20.5456 10.75 19.75C10.75 19.5511 10.671 19.3603 10.5303 19.2197C10.3897 19.079 10.1989 19 10 19C9.80109 19 9.61032 19.079 9.46967 19.2197C9.32902 19.3603 9.25 19.5511 9.25 19.75C9.25124 20.9431 9.72575 22.087 10.5694 22.9306C11.413 23.7743 12.5569 24.2488 13.75 24.25H15.25V25.75C15.25 25.9489 15.329 26.1397 15.4697 26.2803C15.6103 26.421 15.8011 26.5 16 26.5C16.1989 26.5 16.3897 26.421 16.5303 26.2803C16.671 26.1397 16.75 25.9489 16.75 25.75V24.25H18.25C19.4435 24.25 20.5881 23.7759 21.432 22.932C22.2759 22.0881 22.75 20.9435 22.75 19.75C22.75 18.5565 22.2759 17.4119 21.432 16.568C20.5881 15.7241 19.4435 15.25 18.25 15.25ZM14.5 15.25C13.7044 15.25 12.9413 14.9339 12.3787 14.3713C11.8161 13.8087 11.5 13.0456 11.5 12.25C11.5 11.4544 11.8161 10.6913 12.3787 10.1287C12.9413 9.56607 13.7044 9.25 14.5 9.25H15.25V15.25H14.5ZM18.25 22.75H16.75V16.75H18.25C19.0456 16.75 19.8087 17.0661 20.3713 17.6287C20.9339 18.1913 21.25 18.9544 21.25 19.75C21.25 20.5456 20.9339 21.3087 20.3713 21.8713C19.8087 22.4339 19.0456 22.75 18.25 22.75Z" fill="white"/>
<defs>
<linearGradient id="paint0_linear_288_29259" x1="16" y1="0" x2="16" y2="32" gradientUnits="userSpaceOnUse">
<stop stop-color="#2BFFFF" stop-opacity="0.32"/>
<stop offset="0.5" stop-color="#2BFFFF" stop-opacity="0.1"/>
<stop offset="1" stop-color="#2BFFFF"/>
</linearGradient>
</defs>
</svg>
