<svg width="9" height="9" viewBox="0 0 9 9" fill="none" xmlns="http://www.w3.org/2000/svg">
<path d="M4.71781 7.9132C6.58579 7.9132 8.11413 6.38486 8.11413 4.51688C8.11413 2.64891 6.58579 1.12056 4.71781 1.12056C2.84984 1.12056 1.32149 2.64891 1.32149 4.51688C1.32149 6.38486 2.84984 7.9132 4.71781 7.9132ZM4.71781 0.271484C7.05278 0.271484 8.96321 2.18191 8.96321 4.51688C8.96321 6.85185 7.05278 8.76228 4.71781 8.76228C2.38284 8.76228 0.472412 6.85185 0.472412 4.51688C0.472412 2.18191 2.38284 0.271484 4.71781 0.271484ZM6.84051 4.30461V4.94142H4.29327V2.39418H4.93008V4.30461H6.84051Z" fill="#AFB8CF"/>
</svg>
