<svg width="46" height="46" viewBox="0 0 46 46" fill="none" xmlns="http://www.w3.org/2000/svg">
<g filter="url(#filter0_d_455_477)">
<path d="M7.88751 2.86267H43.2498V38.225C43.2498 40.7724 41.1849 42.8373 38.6375 42.8373H7.88751C5.3401 42.8373 3.27521 40.7724 3.27521 38.225V7.47498C3.27521 4.92756 5.3401 2.86267 7.88751 2.86267Z" stroke="white" stroke-opacity="0.12" stroke-width="1.025" shape-rendering="crispEdges"/>
<path d="M7.88751 2.86267H43.2498V38.225C43.2498 40.7724 41.1849 42.8373 38.6375 42.8373H7.88751C5.3401 42.8373 3.27521 40.7724 3.27521 38.225V7.47498C3.27521 4.92756 5.3401 2.86267 7.88751 2.86267Z" stroke="url(#paint0_linear_455_477)" stroke-width="1.025" shape-rendering="crispEdges"/>
<path d="M7.88751 2.86267H43.2498V38.225C43.2498 40.7724 41.1849 42.8373 38.6375 42.8373H7.88751C5.3401 42.8373 3.27521 40.7724 3.27521 38.225V7.47498C3.27521 4.92756 5.3401 2.86267 7.88751 2.86267Z" stroke="black" stroke-opacity="0.2" stroke-width="1.025" shape-rendering="crispEdges"/>
</g>
<path d="M16.5783 13.6127H28.7502C30.6834 13.6127 32.2507 15.0925 32.424 17.0433L32.4357 17.2338V29.3627C32.4357 31.3655 30.8604 32.9406 28.8576 32.9408H16.5783C14.56 32.9406 13.0004 31.3506 13.0002 29.4701V17.1908C13.0004 15.1881 14.5756 13.6128 16.5783 13.6127ZM16.5783 13.722C14.631 13.7222 13.1097 15.2435 13.1096 17.1908V29.3627C13.1096 31.3101 14.6309 32.8313 16.5783 32.8314H28.7502C30.6977 32.8314 32.2189 31.3102 32.2189 29.3627V17.1908C32.2188 15.2434 30.6976 13.722 28.7502 13.722H19.1955V23.1918L20.8244 21.9467L22.632 20.5638C22.644 20.5548 22.6554 20.549 22.6642 20.5433L22.6974 20.5638L24.5051 21.9467L26.133 23.1918V16.8705C26.133 16.8492 26.137 16.8334 26.1389 16.8217C26.1506 16.8198 26.1664 16.8158 26.1877 16.8158C26.2087 16.8158 26.2248 16.8198 26.2365 16.8217C26.2384 16.8334 26.2424 16.8492 26.2424 16.8705V23.2328C26.2299 23.2489 26.209 23.2717 26.1769 23.3002C26.1712 23.3053 26.1636 23.3086 26.1574 23.3138C26.1446 23.3073 26.1308 23.301 26.1174 23.2924L23.2678 21.182L22.6642 20.7347L22.0617 21.182L19.2521 23.2621C19.2341 23.271 19.2176 23.2798 19.2014 23.2875C19.1986 23.2855 19.1957 23.2843 19.1935 23.2826V13.722H16.5783Z" stroke="white" stroke-opacity="0.5" stroke-width="2.02625"/>
<path d="M16.5783 13.6127H28.7502C30.6834 13.6127 32.2507 15.0925 32.424 17.0433L32.4357 17.2338V29.3627C32.4357 31.3655 30.8604 32.9406 28.8576 32.9408H16.5783C14.56 32.9406 13.0004 31.3506 13.0002 29.4701V17.1908C13.0004 15.1881 14.5756 13.6128 16.5783 13.6127ZM16.5783 13.722C14.631 13.7222 13.1097 15.2435 13.1096 17.1908V29.3627C13.1096 31.3101 14.6309 32.8313 16.5783 32.8314H28.7502C30.6977 32.8314 32.2189 31.3102 32.2189 29.3627V17.1908C32.2188 15.2434 30.6976 13.722 28.7502 13.722H19.1955V23.1918L20.8244 21.9467L22.632 20.5638C22.644 20.5548 22.6554 20.549 22.6642 20.5433L22.6974 20.5638L24.5051 21.9467L26.133 23.1918V16.8705C26.133 16.8492 26.137 16.8334 26.1389 16.8217C26.1506 16.8198 26.1664 16.8158 26.1877 16.8158C26.2087 16.8158 26.2248 16.8198 26.2365 16.8217C26.2384 16.8334 26.2424 16.8492 26.2424 16.8705V23.2328C26.2299 23.2489 26.209 23.2717 26.1769 23.3002C26.1712 23.3053 26.1636 23.3086 26.1574 23.3138C26.1446 23.3073 26.1308 23.301 26.1174 23.2924L23.2678 21.182L22.6642 20.7347L22.0617 21.182L19.2521 23.2621C19.2341 23.271 19.2176 23.2798 19.2014 23.2875C19.1986 23.2855 19.1957 23.2843 19.1935 23.2826V13.722H16.5783Z" stroke="url(#paint1_linear_455_477)" stroke-width="2.02625"/>
<path d="M16.5783 13.6127H28.7502C30.6834 13.6127 32.2507 15.0925 32.424 17.0433L32.4357 17.2338V29.3627C32.4357 31.3655 30.8604 32.9406 28.8576 32.9408H16.5783C14.56 32.9406 13.0004 31.3506 13.0002 29.4701V17.1908C13.0004 15.1881 14.5756 13.6128 16.5783 13.6127ZM16.5783 13.722C14.631 13.7222 13.1097 15.2435 13.1096 17.1908V29.3627C13.1096 31.3101 14.6309 32.8313 16.5783 32.8314H28.7502C30.6977 32.8314 32.2189 31.3102 32.2189 29.3627V17.1908C32.2188 15.2434 30.6976 13.722 28.7502 13.722H19.1955V23.1918L20.8244 21.9467L22.632 20.5638C22.644 20.5548 22.6554 20.549 22.6642 20.5433L22.6974 20.5638L24.5051 21.9467L26.133 23.1918V16.8705C26.133 16.8492 26.137 16.8334 26.1389 16.8217C26.1506 16.8198 26.1664 16.8158 26.1877 16.8158C26.2087 16.8158 26.2248 16.8198 26.2365 16.8217C26.2384 16.8334 26.2424 16.8492 26.2424 16.8705V23.2328C26.2299 23.2489 26.209 23.2717 26.1769 23.3002C26.1712 23.3053 26.1636 23.3086 26.1574 23.3138C26.1446 23.3073 26.1308 23.301 26.1174 23.2924L23.2678 21.182L22.6642 20.7347L22.0617 21.182L19.2521 23.2621C19.2341 23.271 19.2176 23.2798 19.2014 23.2875C19.1986 23.2855 19.1957 23.2843 19.1935 23.2826V13.722H16.5783Z" stroke="#0151C1" stroke-opacity="0.5" stroke-width="2.02625"/>
<defs>
<filter id="filter0_d_455_477" x="0.712512" y="0.299976" width="45.1" height="45.1" filterUnits="userSpaceOnUse" color-interpolation-filters="sRGB">
<feFlood flood-opacity="0" result="BackgroundImageFix"/>
<feColorMatrix in="SourceAlpha" type="matrix" values="0 0 0 0 0 0 0 0 0 0 0 0 0 0 0 0 0 0 127 0" result="hardAlpha"/>
<feOffset/>
<feGaussianBlur stdDeviation="1.025"/>
<feComposite in2="hardAlpha" operator="out"/>
<feColorMatrix type="matrix" values="0 0 0 0 0 0 0 0 0 0 0 0 0 0 0 0 0 0 0.09 0"/>
<feBlend mode="normal" in2="BackgroundImageFix" result="effect1_dropShadow_455_477"/>
<feBlend mode="normal" in="SourceGraphic" in2="effect1_dropShadow_455_477" result="shape"/>
</filter>
<linearGradient id="paint0_linear_455_477" x1="30.5591" y1="2.34998" x2="7.27672" y2="15.9173" gradientUnits="userSpaceOnUse">
<stop stop-color="#74B4FF"/>
<stop offset="1" stop-color="#326FB6" stop-opacity="0"/>
</linearGradient>
<linearGradient id="paint1_linear_455_477" x1="26.5373" y1="12.6" x2="14.3813" y2="19.719" gradientUnits="userSpaceOnUse">
<stop stop-color="#74B4FF"/>
<stop offset="1" stop-color="#326FB6" stop-opacity="0"/>
</linearGradient>
</defs>
</svg>
