<svg width="46" height="46" viewBox="0 0 46 46" fill="none" xmlns="http://www.w3.org/2000/svg">
<g filter="url(#filter0_d_288_25639)">
<path d="M7.88751 3.18774H43.2498V38.55C43.2498 41.0975 41.1849 43.1624 38.6375 43.1624H7.88751C5.3401 43.1624 3.27521 41.0975 3.27521 38.55V7.80005C3.27521 5.25264 5.3401 3.18774 7.88751 3.18774Z" stroke="white" stroke-opacity="0.12" stroke-width="1.025" shape-rendering="crispEdges"/>
<path d="M7.88751 3.18774H43.2498V38.55C43.2498 41.0975 41.1849 43.1624 38.6375 43.1624H7.88751C5.3401 43.1624 3.27521 41.0975 3.27521 38.55V7.80005C3.27521 5.25264 5.3401 3.18774 7.88751 3.18774Z" stroke="url(#paint0_linear_288_25639)" stroke-width="1.025" shape-rendering="crispEdges"/>
<path d="M7.88751 3.18774H43.2498V38.55C43.2498 41.0975 41.1849 43.1624 38.6375 43.1624H7.88751C5.3401 43.1624 3.27521 41.0975 3.27521 38.55V7.80005C3.27521 5.25264 5.3401 3.18774 7.88751 3.18774Z" stroke="black" stroke-opacity="0.2" stroke-width="1.025" shape-rendering="crispEdges"/>
</g>
<path d="M30.7833 24.889C30.8435 24.889 30.8776 24.8992 30.8917 24.9047C30.9048 24.9097 30.9064 24.9125 30.9034 24.9095C30.9004 24.9065 30.9032 24.9081 30.9083 24.9213C30.9138 24.9355 30.923 24.9698 30.923 25.0297V32.7308H33.8966C33.9568 32.7308 33.9909 32.741 34.005 32.7465C34.0178 32.7514 34.0194 32.7539 34.0167 32.7513C34.0178 32.7532 34.0195 32.7566 34.0216 32.7621C34.027 32.7762 34.0372 32.8104 34.0372 32.8705C34.0372 32.9304 34.0271 32.9646 34.0216 32.9789C34.0165 32.9921 34.0137 32.9936 34.0167 32.9906C34.0197 32.9876 34.0182 32.9904 34.005 32.9955C33.9908 33.0009 33.9566 33.0111 33.8966 33.0111H13.1407C13.0808 33.0111 13.0466 33.0009 13.0323 32.9955C13.0192 32.9904 13.0176 32.9876 13.0206 32.9906C13.0237 32.9936 13.0208 32.9921 13.0157 32.9789C13.0103 32.9646 13.0001 32.9304 13.0001 32.8705C13.0001 32.8104 13.0103 32.7762 13.0157 32.7621C13.0179 32.7566 13.0195 32.7532 13.0206 32.7513C13.0179 32.7539 13.0196 32.7514 13.0323 32.7465C13.0465 32.741 13.0805 32.7308 13.1407 32.7308H16.1144V25.0297C16.1144 24.9698 16.1236 24.9355 16.129 24.9213C16.1341 24.9081 16.137 24.9065 16.1339 24.9095C16.131 24.9125 16.1325 24.9097 16.1456 24.9047C16.1598 24.8992 16.1939 24.889 16.254 24.889C16.3142 24.889 16.3483 24.8992 16.3624 24.9047C16.3678 24.9067 16.3713 24.9084 16.3732 24.9095C16.3742 24.9112 16.3766 24.9149 16.379 24.9213C16.3845 24.9355 16.3937 24.9698 16.3937 25.0297V32.7308H20.9572V25.0297C20.9572 24.9695 20.9673 24.9354 20.9728 24.9213C20.9777 24.9084 20.9803 24.9068 20.9777 24.9095C20.9746 24.9126 20.9754 24.9097 20.9884 24.9047C21.0025 24.8992 21.0368 24.8891 21.0968 24.889C21.1566 24.889 21.1909 24.8992 21.2052 24.9047C21.2184 24.9097 21.22 24.9126 21.2169 24.9095C21.214 24.9066 21.2168 24.9081 21.2218 24.9213C21.2272 24.9355 21.2374 24.9697 21.2374 25.0297V32.7308H25.7999V25.0297C25.7999 24.9697 25.8101 24.9355 25.8156 24.9213C25.8206 24.9081 25.8234 24.9066 25.8204 24.9095C25.8174 24.9126 25.8189 24.9097 25.8322 24.9047C25.8464 24.8992 25.8807 24.889 25.9406 24.889C26.0006 24.8891 26.0349 24.8992 26.049 24.9047C26.0619 24.9097 26.0627 24.9126 26.0597 24.9095C26.0571 24.9068 26.0596 24.9084 26.0646 24.9213C26.07 24.9354 26.0802 24.9695 26.0802 25.0297V32.7308H30.6437V25.0297C30.6437 24.9698 30.6529 24.9355 30.6583 24.9213C30.6608 24.9149 30.6632 24.9112 30.6642 24.9095C30.6661 24.9084 30.6695 24.9067 30.6749 24.9047C30.689 24.8992 30.7231 24.889 30.7833 24.889Z" fill="#3838DF"/>
<path d="M30.7833 24.889C30.8435 24.889 30.8776 24.8992 30.8917 24.9047C30.9048 24.9097 30.9064 24.9125 30.9034 24.9095C30.9004 24.9065 30.9032 24.9081 30.9083 24.9213C30.9138 24.9355 30.923 24.9698 30.923 25.0297V32.7308H33.8966C33.9568 32.7308 33.9909 32.741 34.005 32.7465C34.0178 32.7514 34.0194 32.7539 34.0167 32.7513C34.0178 32.7532 34.0195 32.7566 34.0216 32.7621C34.027 32.7762 34.0372 32.8104 34.0372 32.8705C34.0372 32.9304 34.0271 32.9646 34.0216 32.9789C34.0165 32.9921 34.0137 32.9936 34.0167 32.9906C34.0197 32.9876 34.0182 32.9904 34.005 32.9955C33.9908 33.0009 33.9566 33.0111 33.8966 33.0111H13.1407C13.0808 33.0111 13.0466 33.0009 13.0323 32.9955C13.0192 32.9904 13.0176 32.9876 13.0206 32.9906C13.0237 32.9936 13.0208 32.9921 13.0157 32.9789C13.0103 32.9646 13.0001 32.9304 13.0001 32.8705C13.0001 32.8104 13.0103 32.7762 13.0157 32.7621C13.0179 32.7566 13.0195 32.7532 13.0206 32.7513C13.0179 32.7539 13.0196 32.7514 13.0323 32.7465C13.0465 32.741 13.0805 32.7308 13.1407 32.7308H16.1144V25.0297C16.1144 24.9698 16.1236 24.9355 16.129 24.9213C16.1341 24.9081 16.137 24.9065 16.1339 24.9095C16.131 24.9125 16.1325 24.9097 16.1456 24.9047C16.1598 24.8992 16.1939 24.889 16.254 24.889C16.3142 24.889 16.3483 24.8992 16.3624 24.9047C16.3678 24.9067 16.3713 24.9084 16.3732 24.9095C16.3742 24.9112 16.3766 24.9149 16.379 24.9213C16.3845 24.9355 16.3937 24.9698 16.3937 25.0297V32.7308H20.9572V25.0297C20.9572 24.9695 20.9673 24.9354 20.9728 24.9213C20.9777 24.9084 20.9803 24.9068 20.9777 24.9095C20.9746 24.9126 20.9754 24.9097 20.9884 24.9047C21.0025 24.8992 21.0368 24.8891 21.0968 24.889C21.1566 24.889 21.1909 24.8992 21.2052 24.9047C21.2184 24.9097 21.22 24.9126 21.2169 24.9095C21.214 24.9066 21.2168 24.9081 21.2218 24.9213C21.2272 24.9355 21.2374 24.9697 21.2374 25.0297V32.7308H25.7999V25.0297C25.7999 24.9697 25.8101 24.9355 25.8156 24.9213C25.8206 24.9081 25.8234 24.9066 25.8204 24.9095C25.8174 24.9126 25.8189 24.9097 25.8322 24.9047C25.8464 24.8992 25.8807 24.889 25.9406 24.889C26.0006 24.8891 26.0349 24.8992 26.049 24.9047C26.0619 24.9097 26.0627 24.9126 26.0597 24.9095C26.0571 24.9068 26.0596 24.9084 26.0646 24.9213C26.07 24.9354 26.0802 24.9695 26.0802 25.0297V32.7308H30.6437V25.0297C30.6437 24.9698 30.6529 24.9355 30.6583 24.9213C30.6608 24.9149 30.6632 24.9112 30.6642 24.9095C30.6661 24.9084 30.6695 24.9067 30.6749 24.9047C30.689 24.8992 30.7231 24.889 30.7833 24.889Z" stroke="white" stroke-opacity="0.5" stroke-width="2.02625"/>
<path d="M30.7833 24.889C30.8435 24.889 30.8776 24.8992 30.8917 24.9047C30.9048 24.9097 30.9064 24.9125 30.9034 24.9095C30.9004 24.9065 30.9032 24.9081 30.9083 24.9213C30.9138 24.9355 30.923 24.9698 30.923 25.0297V32.7308H33.8966C33.9568 32.7308 33.9909 32.741 34.005 32.7465C34.0178 32.7514 34.0194 32.7539 34.0167 32.7513C34.0178 32.7532 34.0195 32.7566 34.0216 32.7621C34.027 32.7762 34.0372 32.8104 34.0372 32.8705C34.0372 32.9304 34.0271 32.9646 34.0216 32.9789C34.0165 32.9921 34.0137 32.9936 34.0167 32.9906C34.0197 32.9876 34.0182 32.9904 34.005 32.9955C33.9908 33.0009 33.9566 33.0111 33.8966 33.0111H13.1407C13.0808 33.0111 13.0466 33.0009 13.0323 32.9955C13.0192 32.9904 13.0176 32.9876 13.0206 32.9906C13.0237 32.9936 13.0208 32.9921 13.0157 32.9789C13.0103 32.9646 13.0001 32.9304 13.0001 32.8705C13.0001 32.8104 13.0103 32.7762 13.0157 32.7621C13.0179 32.7566 13.0195 32.7532 13.0206 32.7513C13.0179 32.7539 13.0196 32.7514 13.0323 32.7465C13.0465 32.741 13.0805 32.7308 13.1407 32.7308H16.1144V25.0297C16.1144 24.9698 16.1236 24.9355 16.129 24.9213C16.1341 24.9081 16.137 24.9065 16.1339 24.9095C16.131 24.9125 16.1325 24.9097 16.1456 24.9047C16.1598 24.8992 16.1939 24.889 16.254 24.889C16.3142 24.889 16.3483 24.8992 16.3624 24.9047C16.3678 24.9067 16.3713 24.9084 16.3732 24.9095C16.3742 24.9112 16.3766 24.9149 16.379 24.9213C16.3845 24.9355 16.3937 24.9698 16.3937 25.0297V32.7308H20.9572V25.0297C20.9572 24.9695 20.9673 24.9354 20.9728 24.9213C20.9777 24.9084 20.9803 24.9068 20.9777 24.9095C20.9746 24.9126 20.9754 24.9097 20.9884 24.9047C21.0025 24.8992 21.0368 24.8891 21.0968 24.889C21.1566 24.889 21.1909 24.8992 21.2052 24.9047C21.2184 24.9097 21.22 24.9126 21.2169 24.9095C21.214 24.9066 21.2168 24.9081 21.2218 24.9213C21.2272 24.9355 21.2374 24.9697 21.2374 25.0297V32.7308H25.7999V25.0297C25.7999 24.9697 25.8101 24.9355 25.8156 24.9213C25.8206 24.9081 25.8234 24.9066 25.8204 24.9095C25.8174 24.9126 25.8189 24.9097 25.8322 24.9047C25.8464 24.8992 25.8807 24.889 25.9406 24.889C26.0006 24.8891 26.0349 24.8992 26.049 24.9047C26.0619 24.9097 26.0627 24.9126 26.0597 24.9095C26.0571 24.9068 26.0596 24.9084 26.0646 24.9213C26.07 24.9354 26.0802 24.9695 26.0802 25.0297V32.7308H30.6437V25.0297C30.6437 24.9698 30.6529 24.9355 30.6583 24.9213C30.6608 24.9149 30.6632 24.9112 30.6642 24.9095C30.6661 24.9084 30.6695 24.9067 30.6749 24.9047C30.689 24.8992 30.7231 24.889 30.7833 24.889Z" stroke="url(#paint1_linear_288_25639)" stroke-width="2.02625"/>
<path d="M30.7833 24.889C30.8435 24.889 30.8776 24.8992 30.8917 24.9047C30.9048 24.9097 30.9064 24.9125 30.9034 24.9095C30.9004 24.9065 30.9032 24.9081 30.9083 24.9213C30.9138 24.9355 30.923 24.9698 30.923 25.0297V32.7308H33.8966C33.9568 32.7308 33.9909 32.741 34.005 32.7465C34.0178 32.7514 34.0194 32.7539 34.0167 32.7513C34.0178 32.7532 34.0195 32.7566 34.0216 32.7621C34.027 32.7762 34.0372 32.8104 34.0372 32.8705C34.0372 32.9304 34.0271 32.9646 34.0216 32.9789C34.0165 32.9921 34.0137 32.9936 34.0167 32.9906C34.0197 32.9876 34.0182 32.9904 34.005 32.9955C33.9908 33.0009 33.9566 33.0111 33.8966 33.0111H13.1407C13.0808 33.0111 13.0466 33.0009 13.0323 32.9955C13.0192 32.9904 13.0176 32.9876 13.0206 32.9906C13.0237 32.9936 13.0208 32.9921 13.0157 32.9789C13.0103 32.9646 13.0001 32.9304 13.0001 32.8705C13.0001 32.8104 13.0103 32.7762 13.0157 32.7621C13.0179 32.7566 13.0195 32.7532 13.0206 32.7513C13.0179 32.7539 13.0196 32.7514 13.0323 32.7465C13.0465 32.741 13.0805 32.7308 13.1407 32.7308H16.1144V25.0297C16.1144 24.9698 16.1236 24.9355 16.129 24.9213C16.1341 24.9081 16.137 24.9065 16.1339 24.9095C16.131 24.9125 16.1325 24.9097 16.1456 24.9047C16.1598 24.8992 16.1939 24.889 16.254 24.889C16.3142 24.889 16.3483 24.8992 16.3624 24.9047C16.3678 24.9067 16.3713 24.9084 16.3732 24.9095C16.3742 24.9112 16.3766 24.9149 16.379 24.9213C16.3845 24.9355 16.3937 24.9698 16.3937 25.0297V32.7308H20.9572V25.0297C20.9572 24.9695 20.9673 24.9354 20.9728 24.9213C20.9777 24.9084 20.9803 24.9068 20.9777 24.9095C20.9746 24.9126 20.9754 24.9097 20.9884 24.9047C21.0025 24.8992 21.0368 24.8891 21.0968 24.889C21.1566 24.889 21.1909 24.8992 21.2052 24.9047C21.2184 24.9097 21.22 24.9126 21.2169 24.9095C21.214 24.9066 21.2168 24.9081 21.2218 24.9213C21.2272 24.9355 21.2374 24.9697 21.2374 25.0297V32.7308H25.7999V25.0297C25.7999 24.9697 25.8101 24.9355 25.8156 24.9213C25.8206 24.9081 25.8234 24.9066 25.8204 24.9095C25.8174 24.9126 25.8189 24.9097 25.8322 24.9047C25.8464 24.8992 25.8807 24.889 25.9406 24.889C26.0006 24.8891 26.0349 24.8992 26.049 24.9047C26.0619 24.9097 26.0627 24.9126 26.0597 24.9095C26.0571 24.9068 26.0596 24.9084 26.0646 24.9213C26.07 24.9354 26.0802 24.9695 26.0802 25.0297V32.7308H30.6437V25.0297C30.6437 24.9698 30.6529 24.9355 30.6583 24.9213C30.6608 24.9149 30.6632 24.9112 30.6642 24.9095C30.6661 24.9084 30.6695 24.9067 30.6749 24.9047C30.689 24.8992 30.7231 24.889 30.7833 24.889Z" stroke="#0151C1" stroke-opacity="0.5" stroke-width="2.02625"/>
<path d="M33.6974 20.8535C33.5088 21.0276 33.2561 21.1337 32.9748 21.1338H14.0627C13.7814 21.1337 13.5286 21.0276 13.34 20.8535H33.6974ZM33.757 17.0273L33.2014 16.7461L24.7844 12.4795L24.7795 12.4766L24.6369 12.4111C23.9669 12.1255 23.1858 12.1255 22.5158 12.4111L22.384 12.4717L13.8508 16.623L13.2805 16.9004V20.793C13.1068 20.6044 13.0002 20.3523 13.0002 20.0713V17.4189C13.0002 17.1001 13.2541 16.6491 13.593 16.4795L22.2375 12.2158L22.259 12.2051L22.2814 12.1934C22.9985 11.7951 23.9109 11.7718 24.7951 12.2139L24.8 12.2158L33.4435 16.4795V16.4805C33.8111 16.6642 34.0373 17.0162 34.0373 17.4189V20.0713C34.0373 20.3523 33.9307 20.6044 33.757 20.793V17.0273Z" stroke="white" stroke-opacity="0.5" stroke-width="2.02625"/>
<path d="M33.6974 20.8535C33.5088 21.0276 33.2561 21.1337 32.9748 21.1338H14.0627C13.7814 21.1337 13.5286 21.0276 13.34 20.8535H33.6974ZM33.757 17.0273L33.2014 16.7461L24.7844 12.4795L24.7795 12.4766L24.6369 12.4111C23.9669 12.1255 23.1858 12.1255 22.5158 12.4111L22.384 12.4717L13.8508 16.623L13.2805 16.9004V20.793C13.1068 20.6044 13.0002 20.3523 13.0002 20.0713V17.4189C13.0002 17.1001 13.2541 16.6491 13.593 16.4795L22.2375 12.2158L22.259 12.2051L22.2814 12.1934C22.9985 11.7951 23.9109 11.7718 24.7951 12.2139L24.8 12.2158L33.4435 16.4795V16.4805C33.8111 16.6642 34.0373 17.0162 34.0373 17.4189V20.0713C34.0373 20.3523 33.9307 20.6044 33.757 20.793V17.0273Z" stroke="url(#paint2_linear_288_25639)" stroke-width="2.02625"/>
<path d="M33.6974 20.8535C33.5088 21.0276 33.2561 21.1337 32.9748 21.1338H14.0627C13.7814 21.1337 13.5286 21.0276 13.34 20.8535H33.6974ZM33.757 17.0273L33.2014 16.7461L24.7844 12.4795L24.7795 12.4766L24.6369 12.4111C23.9669 12.1255 23.1858 12.1255 22.5158 12.4111L22.384 12.4717L13.8508 16.623L13.2805 16.9004V20.793C13.1068 20.6044 13.0002 20.3523 13.0002 20.0713V17.4189C13.0002 17.1001 13.2541 16.6491 13.593 16.4795L22.2375 12.2158L22.259 12.2051L22.2814 12.1934C22.9985 11.7951 23.9109 11.7718 24.7951 12.2139L24.8 12.2158L33.4435 16.4795V16.4805C33.8111 16.6642 34.0373 17.0162 34.0373 17.4189V20.0713C34.0373 20.3523 33.9307 20.6044 33.757 20.793V17.0273Z" stroke="#0151C1" stroke-opacity="0.5" stroke-width="2.02625"/>
<defs>
<filter id="filter0_d_288_25639" x="0.712512" y="0.625049" width="45.1" height="45.1" filterUnits="userSpaceOnUse" color-interpolation-filters="sRGB">
<feFlood flood-opacity="0" result="BackgroundImageFix"/>
<feColorMatrix in="SourceAlpha" type="matrix" values="0 0 0 0 0 0 0 0 0 0 0 0 0 0 0 0 0 0 127 0" result="hardAlpha"/>
<feOffset/>
<feGaussianBlur stdDeviation="1.025"/>
<feComposite in2="hardAlpha" operator="out"/>
<feColorMatrix type="matrix" values="0 0 0 0 0 0 0 0 0 0 0 0 0 0 0 0 0 0 0.09 0"/>
<feBlend mode="normal" in2="BackgroundImageFix" result="effect1_dropShadow_288_25639"/>
<feBlend mode="normal" in="SourceGraphic" in2="effect1_dropShadow_288_25639" result="shape"/>
</filter>
<linearGradient id="paint0_linear_288_25639" x1="30.5591" y1="2.67506" x2="7.27672" y2="16.2424" gradientUnits="userSpaceOnUse">
<stop stop-color="#74B4FF"/>
<stop offset="1" stop-color="#326FB6" stop-opacity="0"/>
</linearGradient>
<linearGradient id="paint1_linear_288_25639" x1="27.623" y1="23.8763" x2="21.2528" y2="32.313" gradientUnits="userSpaceOnUse">
<stop stop-color="#74B4FF"/>
<stop offset="1" stop-color="#326FB6" stop-opacity="0"/>
</linearGradient>
<linearGradient id="paint2_linear_288_25639" x1="27.6231" y1="10.875" x2="20.3783" y2="19.5128" gradientUnits="userSpaceOnUse">
<stop stop-color="#74B4FF"/>
<stop offset="1" stop-color="#326FB6" stop-opacity="0"/>
</linearGradient>
</defs>
</svg>
