<svg width="35" height="35" viewBox="0 0 35 35" fill="none" xmlns="http://www.w3.org/2000/svg">
<rect x="0.5" y="0.854248" width="34" height="33.2917" rx="16.6458" fill="url(#paint0_linear_288_26630)"/>
<rect x="0.5" y="0.854248" width="34" height="33.2917" rx="16.6458" fill="black" fill-opacity="0.2"/>
<path d="M24.2954 18.7215C24.0977 18.5693 23.8676 18.4647 23.623 18.416C23.3783 18.3673 23.1257 18.3757 22.8849 18.4406L20.1064 19.0794C20.1711 18.8064 20.1731 18.5222 20.1123 18.2483C20.0515 17.9743 19.9295 17.7177 19.7554 17.4976C19.5813 17.2775 19.3596 17.0997 19.1071 16.9774C18.8545 16.8552 18.5775 16.7917 18.2969 16.7917H14.9726C14.6934 16.791 14.4169 16.8457 14.1589 16.9525C13.901 17.0593 13.6668 17.2161 13.4698 17.414L11.9677 18.9167H10.0625C9.78071 18.9167 9.51046 19.0287 9.3112 19.2279C9.11194 19.4272 9 19.6975 9 19.9792V22.6355C9 22.9173 9.11194 23.1875 9.3112 23.3868C9.51046 23.5861 9.78071 23.698 10.0625 23.698H16.9688C17.0122 23.698 17.0555 23.6927 17.0976 23.6821L21.3476 22.6196C21.3747 22.6131 21.4011 22.6042 21.4266 22.593L24.0078 21.4946L24.037 21.4814C24.2851 21.3574 24.4975 21.1723 24.6543 20.9436C24.8111 20.7148 24.9071 20.4499 24.9332 20.1738C24.9593 19.8977 24.9147 19.6196 24.8035 19.3655C24.6924 19.1114 24.5184 18.8898 24.298 18.7215H24.2954ZM10.0625 19.9792H11.6562V22.6355H10.0625V19.9792ZM23.5715 20.5244L21.0481 21.5989L16.9023 22.6355H12.7188V19.6678L14.2215 18.1657C14.3198 18.0666 14.4368 17.988 14.5658 17.9346C14.6947 17.8811 14.833 17.8538 14.9726 17.8542H18.2969C18.5082 17.8542 18.7109 17.9382 18.8604 18.0876C19.0098 18.2371 19.0938 18.4398 19.0938 18.6511C19.0938 18.8625 19.0098 19.0652 18.8604 19.2146C18.7109 19.364 18.5082 19.448 18.2969 19.448H16.4375C16.2966 19.448 16.1615 19.504 16.0618 19.6036C15.9622 19.7032 15.9062 19.8384 15.9062 19.9792C15.9062 20.1201 15.9622 20.2553 16.0618 20.3549C16.1615 20.4545 16.2966 20.5105 16.4375 20.5105H18.5625C18.6025 20.5104 18.6423 20.5059 18.6814 20.4972L23.1306 19.4739L23.1512 19.4686C23.287 19.4309 23.432 19.4447 23.5582 19.5075C23.6844 19.5702 23.7829 19.6775 23.8349 19.8085C23.8868 19.9395 23.8884 20.0852 23.8394 20.2173C23.7905 20.3495 23.6943 20.4589 23.5695 20.5244H23.5715ZM19.2491 14.5114C19.1495 14.4117 19.0935 14.2765 19.0935 14.1355C19.0935 13.9945 19.1495 13.8593 19.2491 13.7596C19.3488 13.66 19.484 13.604 19.625 13.604C19.766 13.604 19.9012 13.66 20.0009 13.7596L21.2188 14.9782V10.948C21.2188 10.8071 21.2747 10.672 21.3743 10.5723C21.474 10.4727 21.6091 10.4167 21.75 10.4167C21.8909 10.4167 22.026 10.4727 22.1257 10.5723C22.2253 10.672 22.2812 10.8071 22.2812 10.948V14.9782L23.4991 13.7596C23.5988 13.66 23.734 13.604 23.875 13.604C24.016 13.604 24.1512 13.66 24.2509 13.7596C24.3505 13.8593 24.4065 13.9945 24.4065 14.1355C24.4065 14.2765 24.3505 14.4117 24.2509 14.5114L22.1259 16.6364C22.0765 16.6858 22.0179 16.7249 21.9534 16.7517C21.8889 16.7784 21.8198 16.7922 21.75 16.7922C21.6802 16.7922 21.6111 16.7784 21.5466 16.7517C21.4821 16.7249 21.4235 16.6858 21.3741 16.6364L19.2491 14.5114Z" fill="white"/>
<defs>
<linearGradient id="paint0_linear_288_26630" x1="17.5" y1="0.854248" x2="17.5" y2="34.1459" gradientUnits="userSpaceOnUse">
<stop stop-color="#2BFFFF" stop-opacity="0.32"/>
<stop offset="0.5" stop-color="#2BFFFF" stop-opacity="0.1"/>
<stop offset="1" stop-color="#2BFFFF"/>
</linearGradient>
</defs>
</svg>
