<svg width="35" height="35" viewBox="0 0 35 35" fill="none" xmlns="http://www.w3.org/2000/svg">
<rect x="0.5" y="0.854248" width="34" height="33.2917" rx="16.6458" fill="url(#paint0_linear_288_26640)"/>
<rect x="0.5" y="0.854248" width="34" height="33.2917" rx="16.6458" fill="black" fill-opacity="0.2"/>
<path d="M17.5 10.948C16.1341 10.948 14.7988 11.353 13.6631 12.1119C12.5274 12.8708 11.6422 13.9494 11.1195 15.2113C10.5967 16.4733 10.46 17.8619 10.7265 19.2016C10.9929 20.5413 11.6507 21.7718 12.6165 22.7377C13.5824 23.7036 14.813 24.3613 16.1527 24.6278C17.4923 24.8943 18.881 24.7575 20.1429 24.2348C21.4049 23.7121 22.4835 22.8269 23.2423 21.6912C24.0012 20.5554 24.4063 19.2202 24.4063 17.8542C24.4043 16.0232 23.6761 14.2677 22.3813 12.9729C21.0866 11.6782 19.3311 10.9499 17.5 10.948ZM17.5 23.698C16.3442 23.698 15.2144 23.3553 14.2534 22.7131C13.2924 22.071 12.5434 21.1584 12.1011 20.0906C11.6588 19.0227 11.5431 17.8478 11.7685 16.7142C11.994 15.5806 12.5506 14.5394 13.3678 13.7221C14.1851 12.9048 15.2264 12.3483 16.3599 12.1228C17.4935 11.8973 18.6685 12.013 19.7363 12.4553C20.8041 12.8976 21.7168 13.6466 22.3589 14.6076C23.001 15.5686 23.3438 16.6985 23.3438 17.8542C23.342 19.4036 22.7258 20.8889 21.6302 21.9845C20.5347 23.08 19.0493 23.6962 17.5 23.698ZM20.1563 19.1824C20.1563 19.6755 19.9604 20.1484 19.6117 20.4972C19.263 20.8459 18.79 21.0417 18.2969 21.0417H18.0313V21.573C18.0313 21.7139 17.9753 21.849 17.8757 21.9486C17.776 22.0483 17.6409 22.1042 17.5 22.1042C17.3591 22.1042 17.224 22.0483 17.1244 21.9486C17.0247 21.849 16.9688 21.7139 16.9688 21.573V21.0417H15.9063C15.7654 21.0417 15.6302 20.9858 15.5306 20.8861C15.431 20.7865 15.375 20.6514 15.375 20.5105C15.375 20.3696 15.431 20.2345 15.5306 20.1348C15.6302 20.0352 15.7654 19.9792 15.9063 19.9792H18.2969C18.5082 19.9792 18.7109 19.8953 18.8604 19.7458C19.0098 19.5964 19.0938 19.3937 19.0938 19.1824C19.0938 18.971 19.0098 18.7683 18.8604 18.6189C18.7109 18.4695 18.5082 18.3855 18.2969 18.3855H16.7031C16.21 18.3855 15.7371 18.1896 15.3884 17.8409C15.0397 17.4922 14.8438 17.0193 14.8438 16.5261C14.8438 16.033 15.0397 15.56 15.3884 15.2113C15.7371 14.8626 16.21 14.6667 16.7031 14.6667H16.9688V14.1355C16.9688 13.9946 17.0247 13.8595 17.1244 13.7598C17.224 13.6602 17.3591 13.6042 17.5 13.6042C17.6409 13.6042 17.776 13.6602 17.8757 13.7598C17.9753 13.8595 18.0313 13.9946 18.0313 14.1355V14.6667H19.0938C19.2346 14.6667 19.3698 14.7227 19.4694 14.8223C19.569 14.922 19.625 15.0571 19.625 15.198C19.625 15.3389 19.569 15.474 19.4694 15.5736C19.3698 15.6733 19.2346 15.7292 19.0938 15.7292H16.7031C16.4918 15.7292 16.2891 15.8132 16.1397 15.9626C15.9902 16.1121 15.9063 16.3148 15.9063 16.5261C15.9063 16.7375 15.9902 16.9402 16.1397 17.0896C16.2891 17.239 16.4918 17.323 16.7031 17.323H18.2969C18.79 17.323 19.263 17.5189 19.6117 17.8676C19.9604 18.2163 20.1563 18.6892 20.1563 19.1824Z" fill="white"/>
<defs>
<linearGradient id="paint0_linear_288_26640" x1="17.5" y1="0.854248" x2="17.5" y2="34.1459" gradientUnits="userSpaceOnUse">
<stop stop-color="#2BFFFF" stop-opacity="0.32"/>
<stop offset="0.5" stop-color="#2BFFFF" stop-opacity="0.1"/>
<stop offset="1" stop-color="#2BFFFF"/>
</linearGradient>
</defs>
</svg>
