<svg width="35" height="35" viewBox="0 0 35 35" fill="none" xmlns="http://www.w3.org/2000/svg">
<rect x="0.5" y="0.854248" width="34" height="33.2917" rx="16.6458" fill="url(#paint0_linear_288_26649)"/>
<rect x="0.5" y="0.854248" width="34" height="33.2917" rx="16.6458" fill="black" fill-opacity="0.2"/>
<path d="M14.8438 16.2606H11.6562C11.5154 16.2606 11.3802 16.2046 11.2806 16.105C11.181 16.0054 11.125 15.8702 11.125 15.7293V12.5418C11.125 12.401 11.181 12.2658 11.2806 12.1662C11.3802 12.0666 11.5154 12.0106 11.6562 12.0106C11.7971 12.0106 11.9323 12.0666 12.0319 12.1662C12.1315 12.2658 12.1875 12.401 12.1875 12.5418V14.447L13.159 13.4755C14.3439 12.2847 15.953 11.6131 17.6328 11.6082H17.668C19.3335 11.6039 20.9337 12.2559 22.1219 13.4231C22.2189 13.5223 22.2732 13.6556 22.2732 13.7944C22.2732 13.9332 22.2189 14.0665 22.1219 14.1657C22.0249 14.265 21.8929 14.3223 21.7542 14.3255C21.6154 14.3287 21.4809 14.2775 21.3795 14.1827C20.3891 13.2106 19.0558 12.6674 17.668 12.6707H17.6381C16.2384 12.675 14.8976 13.2346 13.9101 14.2266L12.9386 15.1981H14.8438C14.9846 15.1981 15.1198 15.2541 15.2194 15.3537C15.319 15.4533 15.375 15.5885 15.375 15.7293C15.375 15.8702 15.319 16.0054 15.2194 16.105C15.1198 16.2046 14.9846 16.2606 14.8438 16.2606ZM23.3438 19.4481H20.1562C20.0154 19.4481 19.8802 19.5041 19.7806 19.6037C19.681 19.7033 19.625 19.8385 19.625 19.9793C19.625 20.1202 19.681 20.2554 19.7806 20.355C19.8802 20.4546 20.0154 20.5106 20.1562 20.5106H22.0614L21.0899 21.4821C20.1026 22.474 18.762 23.0335 17.3625 23.038H17.3327C15.9449 23.0413 14.6116 22.4981 13.6212 21.5259C13.5717 21.4753 13.5126 21.4351 13.4474 21.4076C13.3821 21.3802 13.3121 21.366 13.2413 21.366C13.1705 21.3661 13.1004 21.3802 13.0352 21.4077C12.9699 21.4351 12.9108 21.4754 12.8614 21.526C12.8119 21.5766 12.773 21.6366 12.7471 21.7025C12.7211 21.7683 12.7086 21.8387 12.7102 21.9095C12.7118 21.9803 12.7276 22.05 12.7565 22.1146C12.7855 22.1792 12.827 22.2373 12.8788 22.2856C14.067 23.4528 15.6671 24.1048 17.3327 24.1005H17.3672C19.0468 24.0954 20.6556 23.4238 21.8403 22.2332L22.8125 21.2617V23.1668C22.8125 23.3077 22.8685 23.4429 22.9681 23.5425C23.0677 23.6421 23.2029 23.6981 23.3438 23.6981C23.4846 23.6981 23.6198 23.6421 23.7194 23.5425C23.819 23.4429 23.875 23.3077 23.875 23.1668V19.9793C23.875 19.8385 23.819 19.7033 23.7194 19.6037C23.6198 19.5041 23.4846 19.4481 23.3438 19.4481Z" fill="white"/>
<defs>
<linearGradient id="paint0_linear_288_26649" x1="17.5" y1="0.854248" x2="17.5" y2="34.1459" gradientUnits="userSpaceOnUse">
<stop stop-color="#2BFFFF" stop-opacity="0.32"/>
<stop offset="0.5" stop-color="#2BFFFF" stop-opacity="0.1"/>
<stop offset="1" stop-color="#2BFFFF"/>
</linearGradient>
</defs>
</svg>
