<svg width="34" height="35" viewBox="0 0 34 35" fill="none" xmlns="http://www.w3.org/2000/svg">
<rect y="0.854248" width="34" height="33.2917" rx="16.6458" fill="url(#paint0_linear_288_26658)"/>
<rect y="0.854248" width="34" height="33.2917" rx="16.6458" fill="black" fill-opacity="0.2"/>
<path d="M23.375 12.5417H10.625C10.3432 12.5417 10.073 12.6537 9.8737 12.8529C9.67444 13.0522 9.5625 13.3225 9.5625 13.6042V22.1042C9.5625 22.386 9.67444 22.6563 9.8737 22.8555C10.073 23.0548 10.3432 23.1667 10.625 23.1667H23.375C23.6568 23.1667 23.927 23.0548 24.1263 22.8555C24.3256 22.6563 24.4375 22.386 24.4375 22.1042V13.6042C24.4375 13.3225 24.3256 13.0522 24.1263 12.8529C23.927 12.6537 23.6568 12.5417 23.375 12.5417ZM23.375 13.6042V15.198H10.625V13.6042H23.375ZM23.375 22.1042H10.625V16.2605H23.375V22.1042ZM22.3125 20.5105C22.3125 20.6514 22.2565 20.7865 22.1569 20.8861C22.0573 20.9858 21.9221 21.0417 21.7812 21.0417H19.6562C19.5154 21.0417 19.3802 20.9858 19.2806 20.8861C19.181 20.7865 19.125 20.6514 19.125 20.5105C19.125 20.3696 19.181 20.2345 19.2806 20.1348C19.3802 20.0352 19.5154 19.9792 19.6562 19.9792H21.7812C21.9221 19.9792 22.0573 20.0352 22.1569 20.1348C22.2565 20.2345 22.3125 20.3696 22.3125 20.5105ZM18.0625 20.5105C18.0625 20.6514 18.0065 20.7865 17.9069 20.8861C17.8073 20.9858 17.6721 21.0417 17.5312 21.0417H16.4688C16.3279 21.0417 16.1927 20.9858 16.0931 20.8861C15.9935 20.7865 15.9375 20.6514 15.9375 20.5105C15.9375 20.3696 15.9935 20.2345 16.0931 20.1348C16.1927 20.0352 16.3279 19.9792 16.4688 19.9792H17.5312C17.6721 19.9792 17.8073 20.0352 17.9069 20.1348C18.0065 20.2345 18.0625 20.3696 18.0625 20.5105Z" fill="white"/>
<defs>
<linearGradient id="paint0_linear_288_26658" x1="17" y1="0.854248" x2="17" y2="34.1459" gradientUnits="userSpaceOnUse">
<stop stop-color="#2BFFFF" stop-opacity="0.32"/>
<stop offset="0.5" stop-color="#2BFFFF" stop-opacity="0.1"/>
<stop offset="1" stop-color="#2BFFFF"/>
</linearGradient>
</defs>
</svg>
